<?xml version="1.0" encoding="UTF-8"?>
<!DOCTYPE svg PUBLIC "-//W3C//DTD SVG 1.1//EN" "http://www.w3.org/Graphics/SVG/1.1/DTD/svg11.dtd">
<svg xmlns="http://www.w3.org/2000/svg" version="1.1" width="500px" height="500px" style="shape-rendering:geometricPrecision; text-rendering:geometricPrecision; image-rendering:optimizeQuality; fill-rule:evenodd; clip-rule:evenodd" xmlns:xlink="http://www.w3.org/1999/xlink">
<g><path style="opacity:1" fill="#deecba" d="M 253.5,92.5 C 250.674,100.155 247.841,107.822 245,115.5C 243.84,120.453 243.007,125.453 242.5,130.5C 241.566,131.568 241.232,132.901 241.5,134.5C 240.833,134.5 240.5,134.167 240.5,133.5C 241.049,118.523 245.383,104.857 253.5,92.5 Z"/></g>
<g><path style="opacity:1" fill="#329423" d="M 254.5,94.5 C 255.674,95.5137 256.34,96.847 256.5,98.5C 257.868,108.421 257.202,118.088 254.5,127.5C 254.5,122.5 254.5,117.5 254.5,112.5C 254.5,106.5 254.5,100.5 254.5,94.5 Z"/></g>
<g><path style="opacity:1" fill="#11402b" d="M 267.5,112.5 C 266.506,115.124 265.506,117.79 264.5,120.5C 263.775,116.324 262.441,112.324 260.5,108.5C 260.248,104.673 258.915,101.34 256.5,98.5C 256.34,96.847 255.674,95.5137 254.5,94.5C 254.672,93.5084 254.338,92.8417 253.5,92.5C 245.383,104.857 241.049,118.523 240.5,133.5C 239.375,134.348 239.375,135.348 240.5,136.5C 237.867,137.811 237.867,139.311 240.5,141C 239.748,141.671 239.414,142.504 239.5,143.5C 238.728,142.306 237.728,141.306 236.5,140.5C 235.5,138.167 233.833,136.5 231.5,135.5C 230.167,133.5 228.5,131.833 226.5,130.5C 225.078,129.075 223.411,128.075 221.5,127.5C 221.027,126.094 220.027,125.427 218.5,125.5C 212.063,120.521 204.73,118.021 196.5,118C 197.488,120.167 198.821,122 200.5,123.5C 202.181,126.203 203.847,128.869 205.5,131.5C 208.088,136.344 210.421,141.344 212.5,146.5C 218.925,149.547 225.259,152.88 231.5,156.5C 231.842,157.338 232.508,157.672 233.5,157.5C 233.833,158.167 234.167,158.833 234.5,159.5C 232.863,158.782 231.197,158.616 229.5,159C 230.582,160.33 231.249,161.83 231.5,163.5C 229.999,162.248 228.332,161.248 226.5,160.5C 226.167,159.5 225.5,158.833 224.5,158.5C 223.18,157.058 221.514,156.392 219.5,156.5C 212.758,152.315 205.425,150.648 197.5,151.5C 197.855,152.522 198.522,153.189 199.5,153.5C 200.5,155.167 201.833,156.5 203.5,157.5C 206.5,161.5 209.5,165.5 212.5,169.5C 213.925,170.922 214.925,172.589 215.5,174.5C 212.099,173.227 210.766,174.56 211.5,178.5C 204.575,169.732 197.408,161.065 190,152.5C 189.056,149.653 189.556,147.153 191.5,145C 195.871,144.828 200.204,144.328 204.5,143.5C 199.198,133.719 193.531,124.219 187.5,115C 188.473,112.453 190.307,110.953 193,110.5C 209.535,111.936 223.868,118.269 236,129.5C 237.249,114.492 241.582,100.492 249,87.5C 252,84.8333 255,84.8333 258,87.5C 262.458,95.3797 265.625,103.713 267.5,112.5 Z"/></g>
<g><path style="opacity:1" fill="#c4f73e" d="M 253.5,92.5 C 254.338,92.8417 254.672,93.5084 254.5,94.5C 254.5,100.5 254.5,106.5 254.5,112.5C 253.436,116.296 251.77,119.962 249.5,123.5C 246.451,125.216 244.118,127.549 242.5,130.5C 243.007,125.453 243.84,120.453 245,115.5C 247.841,107.822 250.674,100.155 253.5,92.5 Z"/></g>
<g><path style="opacity:1" fill="#edf4d0" d="M 218.5,125.5 C 213.512,123.998 208.512,122.331 203.5,120.5C 202.707,121.355 203.04,122.189 204.5,123C 202.981,122.669 201.648,122.836 200.5,123.5C 198.821,122 197.488,120.167 196.5,118C 204.73,118.021 212.063,120.521 218.5,125.5 Z"/></g>
<g><path style="opacity:1" fill="#147427" d="M 256.5,98.5 C 258.915,101.34 260.248,104.673 260.5,108.5C 260.433,110.401 260.767,112.234 261.5,114C 259.519,121.157 257.186,127.99 254.5,134.5C 254.5,132.167 254.5,129.833 254.5,127.5C 257.202,118.088 257.868,108.421 256.5,98.5 Z"/></g>
<g><path style="opacity:1" fill="#0e3a28" d="M 315.5,145.5 C 310.57,145.803 305.737,145.469 301,144.5C 300.612,146.076 301.112,147.409 302.5,148.5C 304.747,149.374 307.08,149.708 309.5,149.5C 309.771,151.38 309.104,152.713 307.5,153.5C 307.414,152.504 307.748,151.671 308.5,151C 305.961,150.204 303.628,150.371 301.5,151.5C 285.959,154.069 274.293,162.069 266.5,175.5C 264.806,176.527 263.473,177.861 262.5,179.5C 261.213,177.429 259.547,177.096 257.5,178.5C 256.194,175.02 256.194,171.687 257.5,168.5C 257.5,170.167 257.5,171.833 257.5,173.5C 258.873,173.657 260.207,173.49 261.5,173C 264.051,169.956 266.384,166.789 268.5,163.5C 270.806,160.527 273.473,157.86 276.5,155.5C 276.833,155.5 277.167,155.5 277.5,155.5C 283.346,153.16 288.846,150.16 294,146.5C 296.937,140.288 300.104,134.288 303.5,128.5C 306.248,125.271 308.248,121.605 309.5,117.5C 307.585,117.216 305.919,117.549 304.5,118.5C 304.167,118.5 303.833,118.5 303.5,118.5C 288.157,123.25 275.99,132.25 267,145.5C 264.295,149.577 262.128,153.91 260.5,158.5C 259.651,160.888 258.651,163.221 257.5,165.5C 257.664,162.813 257.497,160.146 257,157.5C 255.951,155.893 254.451,155.227 252.5,155.5C 251.937,152.626 250.937,149.96 249.5,147.5C 253.214,150.049 255.547,148.882 256.5,144C 256.167,143.667 255.833,143.333 255.5,143C 256.833,142.667 258.167,142.333 259.5,142C 265.254,135.844 266.921,128.677 264.5,120.5C 265.506,117.79 266.506,115.124 267.5,112.5C 269.102,118.422 270.602,124.422 272,130.5C 284.598,117.643 299.765,111.476 317.5,112C 319.211,113.133 319.711,114.633 319,116.5C 312.998,125.166 307.498,134.166 302.5,143.5C 306.982,144.167 311.316,144.834 315.5,145.5 Z"/></g>
<g><path style="opacity:1" fill="#e7efce" d="M 303.5,118.5 C 300.521,120.47 297.521,122.47 294.5,124.5C 280.5,131.167 270.167,141.5 263.5,155.5C 262.313,157.072 261.313,158.739 260.5,160.5C 260.5,159.833 260.5,159.167 260.5,158.5C 262.128,153.91 264.295,149.577 267,145.5C 275.99,132.25 288.157,123.25 303.5,118.5 Z"/></g>
<g><path style="opacity:1" fill="#d1f05f" d="M 218.5,125.5 C 220.027,125.427 221.027,126.094 221.5,127.5C 217.538,127.013 213.704,126.013 210,124.5C 209.167,124.667 208.333,124.833 207.5,125C 208.71,126.039 209.71,127.206 210.5,128.5C 209.178,128.67 208.011,128.337 207,127.5C 206.209,128.745 205.709,130.078 205.5,131.5C 203.847,128.869 202.181,126.203 200.5,123.5C 201.648,122.836 202.981,122.669 204.5,123C 203.04,122.189 202.707,121.355 203.5,120.5C 208.512,122.331 213.512,123.998 218.5,125.5 Z"/></g>
<g><path style="opacity:1" fill="#7fe234" d="M 254.5,112.5 C 254.5,117.5 254.5,122.5 254.5,127.5C 254.5,129.833 254.5,132.167 254.5,134.5C 253.662,134.842 253.328,135.508 253.5,136.5C 252.883,136.389 252.383,136.056 252,135.5C 249.916,138.145 247.416,138.811 244.5,137.5C 243.167,136.833 242.167,135.833 241.5,134.5C 241.232,132.901 241.566,131.568 242.5,130.5C 244.118,127.549 246.451,125.216 249.5,123.5C 251.77,119.962 253.436,116.296 254.5,112.5 Z"/></g>
<g><path style="opacity:1" fill="#095b2b" d="M 260.5,108.5 C 262.441,112.324 263.775,116.324 264.5,120.5C 264.666,124.514 264.499,128.514 264,132.5C 262.413,131.273 261.079,131.606 260,133.5C 257.152,136.491 254.985,139.824 253.5,143.5C 253.5,141.167 253.5,138.833 253.5,136.5C 253.328,135.508 253.662,134.842 254.5,134.5C 257.186,127.99 259.519,121.157 261.5,114C 260.767,112.234 260.433,110.401 260.5,108.5 Z"/></g>
<g><path style="opacity:1" fill="#60b627" d="M 221.5,127.5 C 223.411,128.075 225.078,129.075 226.5,130.5C 227.993,133.591 227.327,134.091 224.5,132C 222.5,131.333 220.5,131.333 218.5,132C 219.397,134.087 220.064,136.254 220.5,138.5C 217.527,134.86 214.194,131.527 210.5,128.5C 209.71,127.206 208.71,126.039 207.5,125C 208.333,124.833 209.167,124.667 210,124.5C 213.704,126.013 217.538,127.013 221.5,127.5 Z"/></g>
<g><path style="opacity:1" fill="#2d9026" d="M 226.5,130.5 C 228.5,131.833 230.167,133.5 231.5,135.5C 230.345,135.578 229.012,135.912 227.5,136.5C 226.976,138.453 225.976,140.12 224.5,141.5C 225.127,142.417 225.461,143.417 225.5,144.5C 223.844,142.54 222.177,140.54 220.5,138.5C 220.064,136.254 219.397,134.087 218.5,132C 220.5,131.333 222.5,131.333 224.5,132C 227.327,134.091 227.993,133.591 226.5,130.5 Z"/></g>
<g><path style="opacity:1" fill="#78da37" d="M 303.5,118.5 C 303.833,118.5 304.167,118.5 304.5,118.5C 305.552,118.351 306.552,118.517 307.5,119C 303.931,124.071 299.597,128.238 294.5,131.5C 288.731,135.725 284.398,141.058 281.5,147.5C 280.599,148.29 279.932,149.29 279.5,150.5C 279.028,148.469 278.028,146.802 276.5,145.5C 277.641,143.912 279.141,142.579 281,141.5C 281.333,140.167 281.667,138.833 282,137.5C 287.065,133.937 291.232,129.603 294.5,124.5C 297.521,122.47 300.521,120.47 303.5,118.5 Z"/></g>
<g><path style="opacity:1" fill="#15792b" d="M 304.5,118.5 C 305.919,117.549 307.585,117.216 309.5,117.5C 308.248,121.605 306.248,125.271 303.5,128.5C 300.343,132.157 297.01,135.657 293.5,139C 292.128,139.402 290.795,139.902 289.5,140.5C 285.434,145.553 281.434,150.553 277.5,155.5C 277.167,155.5 276.833,155.5 276.5,155.5C 277.075,153.589 278.075,151.922 279.5,150.5C 279.932,149.29 280.599,148.29 281.5,147.5C 285.831,142.175 290.164,136.842 294.5,131.5C 299.597,128.238 303.931,124.071 307.5,119C 306.552,118.517 305.552,118.351 304.5,118.5 Z"/></g>
<g><path style="opacity:1" fill="#064b28" d="M 264.5,120.5 C 266.921,128.677 265.254,135.844 259.5,142C 258.167,142.333 256.833,142.667 255.5,143C 255.833,143.333 256.167,143.667 256.5,144C 255.547,148.882 253.214,150.049 249.5,147.5C 245.949,146.079 244.116,143.412 244,139.5C 242.961,138.29 241.794,137.29 240.5,136.5C 239.375,135.348 239.375,134.348 240.5,133.5C 240.5,134.167 240.833,134.5 241.5,134.5C 242.167,135.833 243.167,136.833 244.5,137.5C 246.794,141.127 249.46,144.461 252.5,147.5C 253.429,146.311 253.762,144.978 253.5,143.5C 254.985,139.824 257.152,136.491 260,133.5C 261.079,131.606 262.413,131.273 264,132.5C 264.499,128.514 264.666,124.514 264.5,120.5 Z"/></g>
<g><path style="opacity:1" fill="#52c333" d="M 253.5,136.5 C 253.5,138.833 253.5,141.167 253.5,143.5C 253.762,144.978 253.429,146.311 252.5,147.5C 249.46,144.461 246.794,141.127 244.5,137.5C 247.416,138.811 249.916,138.145 252,135.5C 252.383,136.056 252.883,136.389 253.5,136.5 Z"/></g>
<g><path style="opacity:1" fill="#259625" d="M 294.5,131.5 C 290.164,136.842 285.831,142.175 281.5,147.5C 284.398,141.058 288.731,135.725 294.5,131.5 Z"/></g>
<g><path style="opacity:1" fill="#adf13f" d="M 294.5,124.5 C 291.232,129.603 287.065,133.937 282,137.5C 281.667,138.833 281.333,140.167 281,141.5C 279.141,142.579 277.641,143.912 276.5,145.5C 275.833,146.167 275.167,146.833 274.5,147.5C 270.347,147.571 267.681,149.571 266.5,153.5C 265.643,154.425 264.643,155.092 263.5,155.5C 270.167,141.5 280.5,131.167 294.5,124.5 Z"/></g>
<g><path style="opacity:1" fill="#9aee40" d="M 210.5,128.5 C 214.194,131.527 217.527,134.86 220.5,138.5C 222.177,140.54 223.844,142.54 225.5,144.5C 225.5,144.833 225.5,145.167 225.5,145.5C 221.366,146.485 217.032,146.818 212.5,146.5C 210.421,141.344 208.088,136.344 205.5,131.5C 205.709,130.078 206.209,128.745 207,127.5C 208.011,128.337 209.178,128.67 210.5,128.5 Z"/></g>
<g><path style="opacity:1" fill="#137829" d="M 231.5,135.5 C 233.833,136.5 235.5,138.167 236.5,140.5C 236.631,141.239 236.464,141.906 236,142.5C 235.311,141.643 234.478,140.977 233.5,140.5C 231.812,143.223 230.145,145.889 228.5,148.5C 227.272,147.694 226.272,146.694 225.5,145.5C 225.5,145.167 225.5,144.833 225.5,144.5C 225.461,143.417 225.127,142.417 224.5,141.5C 225.976,140.12 226.976,138.453 227.5,136.5C 229.012,135.912 230.345,135.578 231.5,135.5 Z"/></g>
<g><path style="opacity:1" fill="#066129" d="M 236.5,140.5 C 237.728,141.306 238.728,142.306 239.5,143.5C 240.833,146.167 242.167,148.833 243.5,151.5C 243.631,152.376 243.298,153.043 242.5,153.5C 241.932,151.565 240.765,150.232 239,149.5C 237.37,150.713 235.536,151.546 233.5,152C 232.862,153.707 232.862,155.54 233.5,157.5C 232.508,157.672 231.842,157.338 231.5,156.5C 231.938,156.565 232.272,156.399 232.5,156C 231.014,153.525 229.681,151.025 228.5,148.5C 230.145,145.889 231.812,143.223 233.5,140.5C 234.478,140.977 235.311,141.643 236,142.5C 236.464,141.906 236.631,141.239 236.5,140.5 Z"/></g>
<g><path style="opacity:1" fill="#55be3a" d="M 225.5,145.5 C 226.272,146.694 227.272,147.694 228.5,148.5C 229.681,151.025 231.014,153.525 232.5,156C 232.272,156.399 231.938,156.565 231.5,156.5C 225.259,152.88 218.925,149.547 212.5,146.5C 217.032,146.818 221.366,146.485 225.5,145.5 Z"/></g>
<g><path style="opacity:1" fill="#6edd32" d="M 274.5,147.5 C 274.728,153.593 271.728,156.926 265.5,157.5C 264.287,157.253 263.62,156.586 263.5,155.5C 264.643,155.092 265.643,154.425 266.5,153.5C 267.681,149.571 270.347,147.571 274.5,147.5 Z"/></g>
<g><path style="opacity:1" fill="#022b20" d="M 240.5,136.5 C 241.794,137.29 242.961,138.29 244,139.5C 244.116,143.412 245.949,146.079 249.5,147.5C 250.937,149.96 251.937,152.626 252.5,155.5C 254.451,155.227 255.951,155.893 257,157.5C 257.497,160.146 257.664,162.813 257.5,165.5C 257.5,166.5 257.5,167.5 257.5,168.5C 256.194,171.687 256.194,175.02 257.5,178.5C 259.547,177.096 261.213,177.429 262.5,179.5C 262.167,180.833 261.833,182.167 261.5,183.5C 261.167,183.5 260.833,183.5 260.5,183.5C 259.464,181.312 257.964,181.312 256,183.5C 255.667,178.833 255.333,174.167 255,169.5C 254.767,167.22 253.934,165.22 252.5,163.5C 250.997,164.59 250.664,165.757 251.5,167C 250.726,169.405 250.226,171.905 250,174.5C 247.449,172.199 244.616,171.532 241.5,172.5C 242.246,173.736 242.579,175.07 242.5,176.5C 241.167,174.833 239.833,173.167 238.5,171.5C 236.833,168.5 234.5,166.167 231.5,164.5C 231.5,164.167 231.5,163.833 231.5,163.5C 231.249,161.83 230.582,160.33 229.5,159C 231.197,158.616 232.863,158.782 234.5,159.5C 236.886,160.373 238.886,161.873 240.5,164C 247.077,165.591 249.244,163.091 247,156.5C 245.811,154.767 244.644,153.1 243.5,151.5C 242.167,148.833 240.833,146.167 239.5,143.5C 239.414,142.504 239.748,141.671 240.5,141C 237.867,139.311 237.867,137.811 240.5,136.5 Z"/></g>
<g><path style="opacity:1" fill="#49b63b" d="M 276.5,145.5 C 278.028,146.802 279.028,148.469 279.5,150.5C 278.075,151.922 277.075,153.589 276.5,155.5C 273.473,157.86 270.806,160.527 268.5,163.5C 265.61,163.278 262.943,163.945 260.5,165.5C 259.948,163.997 259.948,162.331 260.5,160.5C 261.313,158.739 262.313,157.072 263.5,155.5C 263.62,156.586 264.287,157.253 265.5,157.5C 271.728,156.926 274.728,153.593 274.5,147.5C 275.167,146.833 275.833,146.167 276.5,145.5 Z"/></g>
<g><path style="opacity:1" fill="#085d2a" d="M 303.5,128.5 C 300.104,134.288 296.937,140.288 294,146.5C 288.846,150.16 283.346,153.16 277.5,155.5C 281.434,150.553 285.434,145.553 289.5,140.5C 290.795,139.902 292.128,139.402 293.5,139C 297.01,135.657 300.343,132.157 303.5,128.5 Z"/></g>
<g><path style="opacity:1" fill="#227832" d="M 301.5,151.5 C 303.628,150.371 305.961,150.204 308.5,151C 307.748,151.671 307.414,152.504 307.5,153.5C 306.167,154.167 305.167,155.167 304.5,156.5C 303.5,156.5 302.5,156.5 301.5,156.5C 303.094,155.017 304.76,153.517 306.5,152C 305.207,151.51 303.873,151.343 302.5,151.5C 302.167,151.5 301.833,151.5 301.5,151.5 Z"/></g>
<g><path style="opacity:1" fill="#ebf4bf" d="M 219.5,156.5 C 213.805,155.326 208.138,153.993 202.5,152.5C 201.274,152.52 200.274,152.853 199.5,153.5C 198.522,153.189 197.855,152.522 197.5,151.5C 205.425,150.648 212.758,152.315 219.5,156.5 Z"/></g>
<g><path style="opacity:1" fill="#cff25e" d="M 219.5,156.5 C 221.514,156.392 223.18,157.058 224.5,158.5C 223.726,159.147 222.726,159.48 221.5,159.5C 216.933,157.623 212.266,156.457 207.5,156C 208.044,156.717 208.711,157.217 209.5,157.5C 207.741,157.954 205.741,157.954 203.5,157.5C 201.833,156.5 200.5,155.167 199.5,153.5C 200.274,152.853 201.274,152.52 202.5,152.5C 208.138,153.993 213.805,155.326 219.5,156.5 Z"/></g>
<g><path style="opacity:1" fill="#dae9bc" d="M 301.5,151.5 C 301.833,151.5 302.167,151.5 302.5,151.5C 301.486,152.674 300.153,153.34 298.5,153.5C 292.449,155.128 286.783,157.628 281.5,161C 276.63,165.702 271.963,170.535 267.5,175.5C 267.167,175.5 266.833,175.5 266.5,175.5C 274.293,162.069 285.959,154.069 301.5,151.5 Z"/></g>
<g><path style="opacity:1" fill="#024625" d="M 243.5,151.5 C 244.644,153.1 245.811,154.767 247,156.5C 249.244,163.091 247.077,165.591 240.5,164C 238.886,161.873 236.886,160.373 234.5,159.5C 234.167,158.833 233.833,158.167 233.5,157.5C 232.862,155.54 232.862,153.707 233.5,152C 235.536,151.546 237.37,150.713 239,149.5C 240.765,150.232 241.932,151.565 242.5,153.5C 243.298,153.043 243.631,152.376 243.5,151.5 Z"/></g>
<g><path style="opacity:1" fill="#52b921" d="M 224.5,158.5 C 225.5,158.833 226.167,159.5 226.5,160.5C 224.302,161.165 221.969,161.832 219.5,162.5C 219.137,163.183 218.804,163.85 218.5,164.5C 215.681,161.925 212.681,159.592 209.5,157.5C 208.711,157.217 208.044,156.717 207.5,156C 212.266,156.457 216.933,157.623 221.5,159.5C 222.726,159.48 223.726,159.147 224.5,158.5 Z"/></g>
<g><path style="opacity:1" fill="#a1ec47" d="M 203.5,157.5 C 205.741,157.954 207.741,157.954 209.5,157.5C 212.681,159.592 215.681,161.925 218.5,164.5C 218.833,165.167 219.167,165.833 219.5,166.5C 217.696,167.381 216.196,168.714 215,170.5C 214.329,169.748 213.496,169.414 212.5,169.5C 209.5,165.5 206.5,161.5 203.5,157.5 Z"/></g>
<g><path style="opacity:1" fill="#0c3511" d="M 288.5,161.5 C 287.395,162.6 286.062,163.267 284.5,163.5C 283.226,162.811 283.226,161.977 284.5,161C 286.066,160.235 287.399,160.402 288.5,161.5 Z"/></g>
<g><path style="opacity:1" fill="#042621" d="M 315.5,145.5 C 318.528,147.339 319.028,149.672 317,152.5C 307.545,163.121 299.045,174.454 291.5,186.5C 290.957,186.56 290.624,186.893 290.5,187.5C 291.628,188.262 292.795,188.929 294,189.5C 294.497,191.81 294.663,194.143 294.5,196.5C 278.463,194.401 264.796,199.068 253.5,210.5C 248.026,204.433 241.36,200.433 233.5,198.5C 231.095,197.232 228.428,196.565 225.5,196.5C 227.265,195.539 229.265,195.205 231.5,195.5C 231.67,194.178 231.337,193.011 230.5,192C 222.892,189.426 222.892,188.259 230.5,188.5C 232.483,188.843 233.817,188.176 234.5,186.5C 234.56,185.957 234.893,185.624 235.5,185.5C 236.874,186.711 238.374,187.711 240,188.5C 242.099,187.713 244.266,187.38 246.5,187.5C 246.564,183.301 245.231,179.634 242.5,176.5C 242.579,175.07 242.246,173.736 241.5,172.5C 244.616,171.532 247.449,172.199 250,174.5C 250.226,171.905 250.726,169.405 251.5,167C 250.664,165.757 250.997,164.59 252.5,163.5C 253.934,165.22 254.767,167.22 255,169.5C 255.333,174.167 255.667,178.833 256,183.5C 257.964,181.312 259.464,181.312 260.5,183.5C 260.5,184.167 260.5,184.833 260.5,185.5C 258.989,188.544 258.322,191.878 258.5,195.5C 261.187,195.664 263.854,195.497 266.5,195C 268.913,190.029 272.246,188.363 276.5,190C 281.303,187.698 284.969,184.198 287.5,179.5C 293.411,172.011 299.077,164.345 304.5,156.5C 305.167,155.167 306.167,154.167 307.5,153.5C 309.104,152.713 309.771,151.38 309.5,149.5C 307.08,149.708 304.747,149.374 302.5,148.5C 301.112,147.409 300.612,146.076 301,144.5C 305.737,145.469 310.57,145.803 315.5,145.5 Z"/></g>
<g><path style="opacity:1" fill="#054a29" d="M 301.5,156.5 C 302.5,156.5 303.5,156.5 304.5,156.5C 299.077,164.345 293.411,172.011 287.5,179.5C 285.061,180.053 282.727,180.053 280.5,179.5C 278.259,180.129 276.259,181.129 274.5,182.5C 275.754,179.907 277.42,177.573 279.5,175.5C 285.664,167.76 292.998,161.427 301.5,156.5 Z"/></g>
<g><path style="opacity:1" fill="#248b26" d="M 226.5,160.5 C 228.332,161.248 229.999,162.248 231.5,163.5C 231.5,163.833 231.5,164.167 231.5,164.5C 227.47,165.555 225.803,168.222 226.5,172.5C 224.167,170.5 221.833,168.5 219.5,166.5C 219.167,165.833 218.833,165.167 218.5,164.5C 218.804,163.85 219.137,163.183 219.5,162.5C 221.969,161.832 224.302,161.165 226.5,160.5 Z"/></g>
<g><path style="opacity:1" fill="#308e39" d="M 260.5,158.5 C 260.5,159.167 260.5,159.833 260.5,160.5C 259.948,162.331 259.948,163.997 260.5,165.5C 262.943,163.945 265.61,163.278 268.5,163.5C 266.384,166.789 264.051,169.956 261.5,173C 260.207,173.49 258.873,173.657 257.5,173.5C 257.5,171.833 257.5,170.167 257.5,168.5C 257.5,167.5 257.5,166.5 257.5,165.5C 258.651,163.221 259.651,160.888 260.5,158.5 Z"/></g>
<g><path style="opacity:1" fill="#7dcf42" d="M 298.5,153.5 C 295.882,155.452 293.548,157.785 291.5,160.5C 290.583,161.127 289.583,161.461 288.5,161.5C 287.399,160.402 286.066,160.235 284.5,161C 283.226,161.977 283.226,162.811 284.5,163.5C 280.057,167.29 275.391,170.956 270.5,174.5C 269.5,175.167 268.5,175.833 267.5,176.5C 267.5,176.167 267.5,175.833 267.5,175.5C 271.963,170.535 276.63,165.702 281.5,161C 286.783,157.628 292.449,155.128 298.5,153.5 Z"/></g>
<g><path style="opacity:1" fill="#4fbc33" d="M 302.5,151.5 C 303.873,151.343 305.207,151.51 306.5,152C 304.76,153.517 303.094,155.017 301.5,156.5C 292.998,161.427 285.664,167.76 279.5,175.5C 276.828,173.198 273.828,172.865 270.5,174.5C 275.391,170.956 280.057,167.29 284.5,163.5C 286.062,163.267 287.395,162.6 288.5,161.5C 289.583,161.461 290.583,161.127 291.5,160.5C 293.548,157.785 295.882,155.452 298.5,153.5C 300.153,153.34 301.486,152.674 302.5,151.5 Z"/></g>
<g><path style="opacity:1" fill="#0b6527" d="M 231.5,164.5 C 234.5,166.167 236.833,168.5 238.5,171.5C 237.092,173.132 235.592,174.798 234,176.5C 234.612,182.784 233.112,183.117 229.5,177.5C 229.628,175.871 228.628,174.538 226.5,173.5C 226.5,173.167 226.5,172.833 226.5,172.5C 225.803,168.222 227.47,165.555 231.5,164.5 Z"/></g>
<g><path style="opacity:1" fill="#5ac63f" d="M 219.5,166.5 C 221.833,168.5 224.167,170.5 226.5,172.5C 226.5,172.833 226.5,173.167 226.5,173.5C 224.392,177.049 221.392,178.049 217.5,176.5C 217.167,175.5 216.5,174.833 215.5,174.5C 214.925,172.589 213.925,170.922 212.5,169.5C 213.496,169.414 214.329,169.748 215,170.5C 216.196,168.714 217.696,167.381 219.5,166.5 Z"/></g>
<g><path style="opacity:1" fill="#2d9a2c" d="M 279.5,175.5 C 277.42,177.573 275.754,179.907 274.5,182.5C 273.167,183.167 272.167,184.167 271.5,185.5C 268.692,184.071 265.692,183.405 262.5,183.5C 263.811,180.865 265.478,178.531 267.5,176.5C 268.5,175.833 269.5,175.167 270.5,174.5C 273.828,172.865 276.828,173.198 279.5,175.5 Z"/></g>
<g><path style="opacity:1" fill="#023c22" d="M 238.5,171.5 C 239.833,173.167 241.167,174.833 242.5,176.5C 245.231,179.634 246.564,183.301 246.5,187.5C 244.266,187.38 242.099,187.713 240,188.5C 238.374,187.711 236.874,186.711 235.5,185.5C 234.893,185.624 234.56,185.957 234.5,186.5C 233.272,185.694 232.272,184.694 231.5,183.5C 229.827,181.161 227.827,179.161 225.5,177.5C 226.808,176.374 228.142,176.374 229.5,177.5C 233.112,183.117 234.612,182.784 234,176.5C 235.592,174.798 237.092,173.132 238.5,171.5 Z"/></g>
<g><path style="opacity:1" fill="#a0cd7d" d="M 266.5,175.5 C 266.833,175.5 267.167,175.5 267.5,175.5C 267.5,175.833 267.5,176.167 267.5,176.5C 265.478,178.531 263.811,180.865 262.5,183.5C 262.167,184.833 261.833,184.833 261.5,183.5C 261.833,182.167 262.167,180.833 262.5,179.5C 263.473,177.861 264.806,176.527 266.5,175.5 Z"/></g>
<g><path style="opacity:1" fill="#33973c" d="M 226.5,173.5 C 228.628,174.538 229.628,175.871 229.5,177.5C 228.142,176.374 226.808,176.374 225.5,177.5C 227.827,179.161 229.827,181.161 231.5,183.5C 229.21,183.248 226.877,183.914 224.5,185.5C 221.815,182.81 219.482,179.81 217.5,176.5C 221.392,178.049 224.392,177.049 226.5,173.5 Z"/></g>
<g><path style="opacity:1" fill="#023121" d="M 287.5,179.5 C 284.969,184.198 281.303,187.698 276.5,190C 272.246,188.363 268.913,190.029 266.5,195C 263.854,195.497 261.187,195.664 258.5,195.5C 258.322,191.878 258.989,188.544 260.5,185.5C 260.5,187.5 260.5,189.5 260.5,191.5C 262.575,191.698 264.575,191.865 266.5,192C 268.539,190.074 270.206,187.907 271.5,185.5C 272.167,184.167 273.167,183.167 274.5,182.5C 276.259,181.129 278.259,180.129 280.5,179.5C 282.727,180.053 285.061,180.053 287.5,179.5 Z"/></g>
<g><path style="opacity:1" fill="#043123" d="M 215.5,174.5 C 216.5,174.833 217.167,175.5 217.5,176.5C 219.482,179.81 221.815,182.81 224.5,185.5C 226.249,186.985 228.249,187.985 230.5,188.5C 222.892,188.259 222.892,189.426 230.5,192C 231.337,193.011 231.67,194.178 231.5,195.5C 229.265,195.205 227.265,195.539 225.5,196.5C 220.167,196.5 214.833,196.5 209.5,196.5C 210.34,194.386 209.673,192.553 207.5,191C 209.408,189.065 211.242,189.231 213,191.5C 214.826,190.99 214.993,190.156 213.5,189C 214.938,188.781 216.271,188.281 217.5,187.5C 217.376,186.893 217.043,186.56 216.5,186.5C 214.833,183.833 213.167,181.167 211.5,178.5C 210.766,174.56 212.099,173.227 215.5,174.5 Z"/></g>
<g><path style="opacity:1" fill="#197130" d="M 231.5,183.5 C 232.272,184.694 233.272,185.694 234.5,186.5C 233.817,188.176 232.483,188.843 230.5,188.5C 228.249,187.985 226.249,186.985 224.5,185.5C 226.877,183.914 229.21,183.248 231.5,183.5 Z"/></g>
<g><path style="opacity:1" fill="#0f6427" d="M 260.5,183.5 C 260.833,183.5 261.167,183.5 261.5,183.5C 261.833,184.833 262.167,184.833 262.5,183.5C 265.692,183.405 268.692,184.071 271.5,185.5C 270.206,187.907 268.539,190.074 266.5,192C 264.575,191.865 262.575,191.698 260.5,191.5C 260.5,189.5 260.5,187.5 260.5,185.5C 260.5,184.833 260.5,184.167 260.5,183.5 Z"/></g>
<g><path style="opacity:1" fill="#153d29" d="M 291.5,186.5 C 308.17,188.836 322.837,195.503 335.5,206.5C 334.603,207.598 333.77,207.598 333,206.5C 332.5,207.667 331.667,208.5 330.5,209C 330.833,209.333 331.167,209.667 331.5,210C 330.5,210.333 329.5,210.667 328.5,211C 330.063,211.759 331.063,212.926 331.5,214.5C 328.5,212.5 325.5,210.5 322.5,208.5C 319.506,206 316.173,204 312.5,202.5C 309.203,200.399 305.537,199.065 301.5,198.5C 299.393,197.532 297.059,197.198 294.5,197.5C 294.5,197.167 294.5,196.833 294.5,196.5C 294.663,194.143 294.497,191.81 294,189.5C 292.795,188.929 291.628,188.262 290.5,187.5C 290.624,186.893 290.957,186.56 291.5,186.5 Z"/></g>
<g><path style="opacity:1" fill="#eaedd2" d="M 294.5,196.5 C 294.5,196.833 294.5,197.167 294.5,197.5C 286.241,197.032 278.241,198.199 270.5,201C 267.761,202.026 265.428,203.526 263.5,205.5C 260.2,207.63 257.034,209.964 254,212.5C 250.213,209.696 246.38,207.03 242.5,204.5C 240.819,202.992 238.819,201.992 236.5,201.5C 235.081,200.549 233.415,200.216 231.5,200.5C 227.1,198.896 222.434,198.229 217.5,198.5C 222.675,197.441 228.009,197.441 233.5,198.5C 241.36,200.433 248.026,204.433 253.5,210.5C 264.796,199.068 278.463,194.401 294.5,196.5 Z"/></g>
<g><path style="opacity:1" fill="#fcbe0e" d="M 301.5,198.5 C 305.537,199.065 309.203,200.399 312.5,202.5C 310.05,202.298 307.717,202.631 305.5,203.5C 302.575,202.361 299.575,201.861 296.5,202C 299.553,203.527 302.553,205.027 305.5,206.5C 306.01,209.388 305.344,211.721 303.5,213.5C 302.833,213.167 302.167,212.833 301.5,212.5C 295.464,207.481 288.797,203.481 281.5,200.5C 287.924,198.627 294.591,197.96 301.5,198.5 Z"/></g>
<g><path style="opacity:1" fill="#fef33c" d="M 236.5,201.5 C 238.819,201.992 240.819,202.992 242.5,204.5C 238.753,202.979 237.086,204.479 237.5,209C 237.603,210.561 237.937,212.061 238.5,213.5C 240.421,214.324 241.754,215.657 242.5,217.5C 240.091,218.701 238.091,220.367 236.5,222.5C 235.027,223.072 233.693,223.905 232.5,225C 230.833,225.667 229.167,225.667 227.5,225C 223.21,220.243 219.543,215.077 216.5,209.5C 221.932,207.285 227.265,204.785 232.5,202C 233.793,201.51 235.127,201.343 236.5,201.5 Z"/></g>
<g><path style="opacity:1" fill="#fdf590" d="M 231.5,200.5 C 233.415,200.216 235.081,200.549 236.5,201.5C 235.127,201.343 233.793,201.51 232.5,202C 227.265,204.785 221.932,207.285 216.5,209.5C 216.953,208.542 217.619,207.708 218.5,207C 222.259,205.121 225.925,203.287 229.5,201.5C 230.492,201.672 231.158,201.338 231.5,200.5 Z"/></g>
<g><path style="opacity:1" fill="#f2980b" d="M 312.5,202.5 C 316.173,204 319.506,206 322.5,208.5C 322.209,209.649 321.376,210.316 320,210.5C 314.782,208.807 309.949,206.474 305.5,203.5C 307.717,202.631 310.05,202.298 312.5,202.5 Z"/></g>
<g><path style="opacity:1" fill="#fefef5" d="M 205.5,211.5 C 205.833,212.5 206.5,213.167 207.5,213.5C 210.287,223.216 206.621,227.05 196.5,225C 190.912,219.933 191.245,215.267 197.5,211C 200.221,210.398 202.887,210.565 205.5,211.5 Z"/></g>
<g><path style="opacity:1" fill="#feea28" d="M 242.5,204.5 C 246.38,207.03 250.213,209.696 254,212.5C 257.034,209.964 260.2,207.63 263.5,205.5C 265.836,204.657 268.169,204.157 270.5,204C 272.263,207.243 272.929,210.743 272.5,214.5C 270.876,214.64 269.71,213.973 269,212.5C 268.313,214.568 268.48,216.568 269.5,218.5C 266.693,219.137 264.027,218.471 261.5,216.5C 261.167,217.333 260.833,218.167 260.5,219C 263.056,225.131 262.889,231.297 260,237.5C 257.581,241.334 254.914,245.001 252,248.5C 251.329,247.748 250.496,247.414 249.5,247.5C 248.833,247.167 248.167,246.833 247.5,246.5C 242.519,241.514 237.852,236.18 233.5,230.5C 238.511,226.816 243.178,222.816 247.5,218.5C 247.953,217.542 248.619,216.708 249.5,216C 246.935,215.391 244.601,215.891 242.5,217.5C 241.754,215.657 240.421,214.324 238.5,213.5C 237.937,212.061 237.603,210.561 237.5,209C 237.086,204.479 238.753,202.979 242.5,204.5 Z"/></g>
<g><path style="opacity:1" fill="#ee930b" d="M 305.5,206.5 C 310.255,208.633 314.422,211.633 318,215.5C 319.583,220.1 318.083,221.934 313.5,221C 309.92,218.723 306.586,216.223 303.5,213.5C 305.344,211.721 306.01,209.388 305.5,206.5 Z"/></g>
<g><path style="opacity:1" fill="#fed415" d="M 292.5,212.5 C 292.56,211.957 292.893,211.624 293.5,211.5C 294.518,212.193 295.518,212.859 296.5,213.5C 294.927,220.691 293.927,228.025 293.5,235.5C 292.167,235.5 290.833,235.5 289.5,235.5C 289.167,235.5 288.833,235.5 288.5,235.5C 285.457,233.457 283.124,230.79 281.5,227.5C 282.496,227.586 283.329,227.252 284,226.5C 286.389,221.446 289.555,216.946 293.5,213C 293.272,212.601 292.938,212.435 292.5,212.5 Z"/></g>
<g><path style="opacity:1" fill="#fedd1c" d="M 294.5,197.5 C 297.059,197.198 299.393,197.532 301.5,198.5C 294.591,197.96 287.924,198.627 281.5,200.5C 279.801,200.34 278.134,200.506 276.5,201C 280.295,202.731 283.962,204.731 287.5,207C 288.574,207.739 289.241,208.739 289.5,210C 286.712,215.073 283.546,219.906 280,224.5C 278.301,225.406 276.467,225.739 274.5,225.5C 272.448,222.472 269.782,221.139 266.5,221.5C 268.676,225.168 271.342,228.334 274.5,231C 268.977,237.022 263.644,243.188 258.5,249.5C 254.757,252.482 251.757,251.815 249.5,247.5C 250.496,247.414 251.329,247.748 252,248.5C 254.914,245.001 257.581,241.334 260,237.5C 262.889,231.297 263.056,225.131 260.5,219C 260.833,218.167 261.167,217.333 261.5,216.5C 264.027,218.471 266.693,219.137 269.5,218.5C 268.48,216.568 268.313,214.568 269,212.5C 269.71,213.973 270.876,214.64 272.5,214.5C 272.929,210.743 272.263,207.243 270.5,204C 268.169,204.157 265.836,204.657 263.5,205.5C 265.428,203.526 267.761,202.026 270.5,201C 278.241,198.199 286.241,197.032 294.5,197.5 Z"/></g>
<g><path style="opacity:1" fill="#f7ba11" d="M 247.5,218.5 C 243.292,220.368 239.625,223.035 236.5,226.5C 237.354,224.965 237.354,223.632 236.5,222.5C 238.091,220.367 240.091,218.701 242.5,217.5C 244.601,215.891 246.935,215.391 249.5,216C 248.619,216.708 247.953,217.542 247.5,218.5 Z"/></g>
<g><path style="opacity:1" fill="#0c2921" d="M 335.5,206.5 C 340.497,210.664 344.997,215.331 349,220.5C 349.667,221.833 349.667,223.167 349,224.5C 338.133,226.514 328.967,231.514 321.5,239.5C 321.365,236.226 320.365,233.226 318.5,230.5C 317.583,231.127 316.583,231.461 315.5,231.5C 317.294,229.203 319.294,227.037 321.5,225C 326.216,222.539 330.216,220.039 333.5,217.5C 332.833,216.5 332.167,215.5 331.5,214.5C 331.063,212.926 330.063,211.759 328.5,211C 329.5,210.667 330.5,210.333 331.5,210C 331.167,209.667 330.833,209.333 330.5,209C 331.667,208.5 332.5,207.667 333,206.5C 333.77,207.598 334.603,207.598 335.5,206.5 Z"/></g>
<g><path style="opacity:1" fill="#134a33" d="M 216.5,186.5 C 217.043,186.56 217.376,186.893 217.5,187.5C 216.271,188.281 214.938,188.781 213.5,189C 214.993,190.156 214.826,190.99 213,191.5C 211.242,189.231 209.408,189.065 207.5,191C 209.673,192.553 210.34,194.386 209.5,196.5C 182.859,204.145 164.526,220.812 154.5,246.5C 154.261,244.533 154.594,242.699 155.5,241C 154.737,240.056 153.737,239.556 152.5,239.5C 149.932,241.673 147.599,244.006 145.5,246.5C 154.096,219.805 171.429,201.305 197.5,191C 203.857,188.992 210.19,187.492 216.5,186.5 Z"/></g>
<g><path style="opacity:1" fill="#fef94f" d="M 231.5,200.5 C 231.158,201.338 230.492,201.672 229.5,201.5C 220.497,202.675 212.497,206.009 205.5,211.5C 202.887,210.565 200.221,210.398 197.5,211C 191.245,215.267 190.912,219.933 196.5,225C 206.621,227.05 210.287,223.216 207.5,213.5C 208.167,213.5 208.833,213.5 209.5,213.5C 209.249,216.909 209.583,220.242 210.5,223.5C 209.07,225.386 207.403,227.053 205.5,228.5C 201.875,227.87 198.375,226.87 195,225.5C 192.964,227.21 190.964,228.877 189,230.5C 187.463,229.965 185.963,229.632 184.5,229.5C 182.077,231.086 179.41,232.086 176.5,232.5C 175.833,231.833 175.167,231.167 174.5,230.5C 173.583,231.127 172.583,231.461 171.5,231.5C 186.226,211.136 206.226,200.803 231.5,200.5 Z"/></g>
<g><path style="opacity:1" fill="#c26206" d="M 305.5,203.5 C 309.949,206.474 314.782,208.807 320,210.5C 321.376,210.316 322.209,209.649 322.5,208.5C 325.5,210.5 328.5,212.5 331.5,214.5C 332.167,215.5 332.833,216.5 333.5,217.5C 324.963,219.835 317.797,224.502 312,231.5C 311.308,232.437 311.475,233.103 312.5,233.5C 307.452,241.258 303.786,249.592 301.5,258.5C 301.5,256.833 301.5,255.167 301.5,253.5C 301.292,251.08 301.626,248.747 302.5,246.5C 301.757,245.818 301.091,245.151 300.5,244.5C 301.376,244.631 302.043,244.298 302.5,243.5C 305.593,237.582 309.26,232.082 313.5,227C 310.98,223.985 307.98,221.485 304.5,219.5C 302.833,218.167 301.167,216.833 299.5,215.5C 299.427,213.973 300.094,212.973 301.5,212.5C 302.167,212.833 302.833,213.167 303.5,213.5C 306.586,216.223 309.92,218.723 313.5,221C 318.083,221.934 319.583,220.1 318,215.5C 314.422,211.633 310.255,208.633 305.5,206.5C 302.553,205.027 299.553,203.527 296.5,202C 299.575,201.861 302.575,202.361 305.5,203.5 Z"/></g>
<g><path style="opacity:1" fill="#fbf6b8" d="M 189.5,208.5 C 186.605,213.137 182.605,216.637 177.5,219C 174.963,221.906 172.796,225.073 171,228.5C 169.887,229.305 168.721,229.972 167.5,230.5C 172.5,220.833 179.833,213.5 189.5,208.5 Z"/></g>
<g><path style="opacity:1" fill="#fdf897" d="M 217.5,198.5 C 222.434,198.229 227.1,198.896 231.5,200.5C 206.226,200.803 186.226,211.136 171.5,231.5C 168.016,235.134 165.016,239.134 162.5,243.5C 160.898,247.095 158.898,250.429 156.5,253.5C 155.89,252.609 155.557,251.609 155.5,250.5C 157.074,250.063 158.241,249.063 159,247.5C 161.734,241.806 164.568,236.14 167.5,230.5C 168.721,229.972 169.887,229.305 171,228.5C 172.796,225.073 174.963,221.906 177.5,219C 182.605,216.637 186.605,213.137 189.5,208.5C 197.96,202.946 207.294,199.613 217.5,198.5 Z"/></g>
<g><path style="opacity:1" fill="#fbef7f" d="M 292.5,212.5 C 292.938,212.435 293.272,212.601 293.5,213C 289.555,216.946 286.389,221.446 284,226.5C 283.329,227.252 282.496,227.586 281.5,227.5C 284.446,221.929 288.112,216.929 292.5,212.5 Z"/></g>
<g><path style="opacity:1" fill="#fec20f" d="M 296.5,213.5 C 297.5,214.167 298.5,214.833 299.5,215.5C 301.167,216.833 302.833,218.167 304.5,219.5C 304.663,221.857 304.497,224.19 304,226.5C 302.128,232.071 300.295,237.405 298.5,242.5C 295.19,240.518 292.19,238.185 289.5,235.5C 290.833,235.5 292.167,235.5 293.5,235.5C 293.927,228.025 294.927,220.691 296.5,213.5 Z"/></g>
<g><path style="opacity:1" fill="#fef881" d="M 247.5,218.5 C 243.178,222.816 238.511,226.816 233.5,230.5C 234.5,229.167 235.5,227.833 236.5,226.5C 239.625,223.035 243.292,220.368 247.5,218.5 Z"/></g>
<g><path style="opacity:1" fill="#e6991c" d="M 333.5,217.5 C 330.216,220.039 326.216,222.539 321.5,225C 319.294,227.037 317.294,229.203 315.5,231.5C 314.5,232.167 313.5,232.833 312.5,233.5C 311.475,233.103 311.308,232.437 312,231.5C 317.797,224.502 324.963,219.835 333.5,217.5 Z"/></g>
<g><path style="opacity:1" fill="#e3f2e9" d="M 209.5,196.5 C 214.833,196.5 220.167,196.5 225.5,196.5C 228.428,196.565 231.095,197.232 233.5,198.5C 228.009,197.441 222.675,197.441 217.5,198.5C 207.294,199.613 197.96,202.946 189.5,208.5C 179.833,213.5 172.5,220.833 167.5,230.5C 164.568,236.14 161.734,241.806 159,247.5C 158.241,249.063 157.074,250.063 155.5,250.5C 155.5,249.833 155.167,249.5 154.5,249.5C 154.5,248.5 154.5,247.5 154.5,246.5C 164.526,220.812 182.859,204.145 209.5,196.5 Z"/></g>
<g><path style="opacity:1" fill="#cf7e08" d="M 281.5,200.5 C 288.797,203.481 295.464,207.481 301.5,212.5C 300.094,212.973 299.427,213.973 299.5,215.5C 298.5,214.833 297.5,214.167 296.5,213.5C 295.518,212.859 294.518,212.193 293.5,211.5C 292.893,211.624 292.56,211.957 292.5,212.5C 288.112,216.929 284.446,221.929 281.5,227.5C 283.124,230.79 285.457,233.457 288.5,235.5C 287.761,235.369 287.094,235.536 286.5,236C 289.069,238.479 291.402,241.146 293.5,244C 292.944,244.383 292.611,244.883 292.5,245.5C 289.833,243.167 287.167,240.833 284.5,238.5C 282.804,236.475 281.137,234.475 279.5,232.5C 278.791,231.596 277.791,231.263 276.5,231.5C 276.296,229.315 275.63,227.315 274.5,225.5C 276.467,225.739 278.301,225.406 280,224.5C 283.546,219.906 286.712,215.073 289.5,210C 289.241,208.739 288.574,207.739 287.5,207C 283.962,204.731 280.295,202.731 276.5,201C 278.134,200.506 279.801,200.34 281.5,200.5 Z"/></g>
<g><path style="opacity:1" fill="#f39a0d" d="M 304.5,219.5 C 307.98,221.485 310.98,223.985 313.5,227C 309.26,232.082 305.593,237.582 302.5,243.5C 302.043,244.298 301.376,244.631 300.5,244.5C 299.5,244.167 298.833,243.5 298.5,242.5C 300.295,237.405 302.128,232.071 304,226.5C 304.497,224.19 304.663,221.857 304.5,219.5 Z"/></g>
<g><path style="opacity:1" fill="#fef336" d="M 223.5,232.5 C 216.972,236.949 210.972,242.116 205.5,248C 203.833,248.667 202.167,248.667 200.5,248C 195.615,242.612 190.282,237.779 184.5,233.5C 183.417,234.365 183.251,235.365 184,236.5C 188.368,240.533 192.368,244.866 196,249.5C 197.47,254.19 195.97,257.523 191.5,259.5C 189.833,259.5 188.167,259.5 186.5,259.5C 186.657,260.873 186.49,262.207 186,263.5C 184.149,260.936 182.316,260.936 180.5,263.5C 179.708,262.3 179.708,260.967 180.5,259.5C 187.32,250.604 184.987,245.937 173.5,245.5C 172.527,243.553 171.527,241.553 170.5,239.5C 167.253,239.952 164.586,241.285 162.5,243.5C 165.016,239.134 168.016,235.134 171.5,231.5C 172.583,231.461 173.583,231.127 174.5,230.5C 175.167,231.167 175.833,231.833 176.5,232.5C 179.41,232.086 182.077,231.086 184.5,229.5C 185.963,229.632 187.463,229.965 189,230.5C 190.964,228.877 192.964,227.21 195,225.5C 198.375,226.87 201.875,227.87 205.5,228.5C 207.403,227.053 209.07,225.386 210.5,223.5C 209.583,220.242 209.249,216.909 209.5,213.5C 210.755,211.359 212.422,210.693 214.5,211.5C 217.805,216.638 221.305,221.638 225,226.5C 225.748,228.84 225.248,230.84 223.5,232.5 Z"/></g>
<g><path style="opacity:1" fill="#feed2c" d="M 231.5,233.5 C 234.313,235.824 236.646,238.49 238.5,241.5C 240.71,255.754 235.71,265.754 223.5,271.5C 221.833,270.5 220.5,269.167 219.5,267.5C 216.05,262.901 212.384,258.568 208.5,254.5C 215.262,246.399 222.929,239.399 231.5,233.5 Z"/></g>
<g><path style="opacity:1" fill="#fee52a" d="M 277.5,234.5 C 277.567,236.401 277.233,238.234 276.5,240C 274.326,243.838 272.16,247.671 270,251.5C 269.333,256.167 269.333,260.833 270,265.5C 271.5,267 273,268.5 274.5,270C 273.906,270.464 273.239,270.631 272.5,270.5C 267.855,265.52 263.188,260.52 258.5,255.5C 257.334,253.833 257.334,252.166 258.5,250.5C 259.5,249.833 260.5,249.167 261.5,248.5C 266.537,243.461 271.871,238.794 277.5,234.5 Z"/></g>
<g><path style="opacity:1" fill="#eaa913" d="M 274.5,225.5 C 275.63,227.315 276.296,229.315 276.5,231.5C 277.791,231.263 278.791,231.596 279.5,232.5C 278.833,232.5 278.167,232.5 277.5,232.5C 271.242,236.758 265.909,242.091 261.5,248.5C 260.5,249.167 259.5,249.833 258.5,250.5C 258.5,250.167 258.5,249.833 258.5,249.5C 263.644,243.188 268.977,237.022 274.5,231C 271.342,228.334 268.676,225.168 266.5,221.5C 269.782,221.139 272.448,222.472 274.5,225.5 Z"/></g>
<g><path style="opacity:1" fill="#fdf381" d="M 277.5,232.5 C 277.5,233.167 277.5,233.833 277.5,234.5C 271.871,238.794 266.537,243.461 261.5,248.5C 265.909,242.091 271.242,236.758 277.5,232.5 Z"/></g>
<g><path style="opacity:1" fill="#fee21c" d="M 238.5,241.5 C 242.167,245.5 245.833,249.5 249.5,253.5C 250.833,254.833 250.833,256.167 249.5,257.5C 243.698,262.47 238.365,267.97 233.5,274C 229.246,276.519 225.913,275.685 223.5,271.5C 235.71,265.754 240.71,255.754 238.5,241.5 Z"/></g>
<g><path style="opacity:1" fill="#d4860b" d="M 223.5,232.5 C 224.525,232.897 224.692,233.563 224,234.5C 219,238.833 214,243.167 209,247.5C 207.097,249.441 206.264,251.774 206.5,254.5C 202.61,253.777 199.944,255.11 198.5,258.5C 192.472,264.86 186.472,271.193 180.5,277.5C 180.608,275.217 181.441,273.217 183,271.5C 186.5,268 190,264.5 193.5,261C 192.906,260.536 192.239,260.369 191.5,260.5C 191.5,260.167 191.5,259.833 191.5,259.5C 195.97,257.523 197.47,254.19 196,249.5C 192.368,244.866 188.368,240.533 184,236.5C 183.251,235.365 183.417,234.365 184.5,233.5C 190.282,237.779 195.615,242.612 200.5,248C 202.167,248.667 203.833,248.667 205.5,248C 210.972,242.116 216.972,236.949 223.5,232.5 Z"/></g>
<g><path style="opacity:1" fill="#fef0ce" d="M 173.5,245.5 C 184.987,245.937 187.32,250.604 180.5,259.5C 171.915,261.752 168.082,258.419 169,249.5C 170.371,247.959 171.871,246.625 173.5,245.5 Z"/></g>
<g><path style="opacity:1" fill="#f9b30d" d="M 292.5,246.5 C 295.146,248.479 297.479,250.812 299.5,253.5C 292.746,260.247 286.413,267.247 280.5,274.5C 280.215,272.712 280.548,271.045 281.5,269.5C 285.38,261.816 289.047,254.15 292.5,246.5 Z"/></g>
<g><path style="opacity:1" fill="#fdf59a" d="M 231.5,233.5 C 222.929,239.399 215.262,246.399 208.5,254.5C 207.475,254.103 207.308,253.437 208,252.5C 214.531,245.635 221.364,239.135 228.5,233C 229.749,232.26 230.749,232.427 231.5,233.5 Z"/></g>
<g><path style="opacity:1" fill="#fed714" d="M 277.5,232.5 C 278.167,232.5 278.833,232.5 279.5,232.5C 281.137,234.475 282.804,236.475 284.5,238.5C 285.463,242.796 285.629,247.129 285,251.5C 282.73,258.409 280.23,265.242 277.5,272C 277.164,273.03 276.497,273.53 275.5,273.5C 274.167,272.833 273.167,271.833 272.5,270.5C 273.239,270.631 273.906,270.464 274.5,270C 273,268.5 271.5,267 270,265.5C 269.333,260.833 269.333,256.167 270,251.5C 272.16,247.671 274.326,243.838 276.5,240C 277.233,238.234 277.567,236.401 277.5,234.5C 277.5,233.833 277.5,233.167 277.5,232.5 Z"/></g>
<g><path style="opacity:1" fill="#fec80e" d="M 284.5,238.5 C 287.167,240.833 289.833,243.167 292.5,245.5C 292.5,245.833 292.5,246.167 292.5,246.5C 289.047,254.15 285.38,261.816 281.5,269.5C 280.548,271.045 280.215,272.712 280.5,274.5C 279.791,275.404 278.791,275.737 277.5,275.5C 276.833,274.833 276.167,274.167 275.5,273.5C 276.497,273.53 277.164,273.03 277.5,272C 280.23,265.242 282.73,258.409 285,251.5C 285.629,247.129 285.463,242.796 284.5,238.5 Z"/></g>
<g><path style="opacity:1" fill="#dc860f" d="M 247.5,246.5 C 248.167,246.833 248.833,247.167 249.5,247.5C 251.757,251.815 254.757,252.482 258.5,249.5C 258.5,249.833 258.5,250.167 258.5,250.5C 257.334,252.166 257.334,253.833 258.5,255.5C 263.188,260.52 267.855,265.52 272.5,270.5C 272.373,273.437 272.373,276.437 272.5,279.5C 267.833,274.5 263.167,269.5 258.5,264.5C 257.177,262.318 255.51,261.651 253.5,262.5C 246.797,268.202 240.797,274.536 235.5,281.5C 234.957,281.56 234.624,281.893 234.5,282.5C 235.193,283.518 235.859,284.518 236.5,285.5C 235.197,285.622 233.864,285.622 232.5,285.5C 233.246,286.736 233.579,288.07 233.5,289.5C 232.167,288.833 231.167,287.833 230.5,286.5C 229.146,284.46 229.813,282.293 232.5,280C 231.833,279.667 231.167,279.333 230.5,279C 236.919,272.581 243.419,266.081 250,259.5C 250.692,258.563 250.525,257.897 249.5,257.5C 250.833,256.167 250.833,254.833 249.5,253.5C 249.457,250.912 248.457,248.746 246.5,247C 246.728,246.601 247.062,246.435 247.5,246.5 Z"/></g>
<g><path style="opacity:1" fill="#e89d16" d="M 229.5,201.5 C 225.925,203.287 222.259,205.121 218.5,207C 217.619,207.708 216.953,208.542 216.5,209.5C 219.543,215.077 223.21,220.243 227.5,225C 229.167,225.667 230.833,225.667 232.5,225C 233.693,223.905 235.027,223.072 236.5,222.5C 237.354,223.632 237.354,224.965 236.5,226.5C 235.5,227.833 234.5,229.167 233.5,230.5C 237.852,236.18 242.519,241.514 247.5,246.5C 247.062,246.435 246.728,246.601 246.5,247C 248.457,248.746 249.457,250.912 249.5,253.5C 245.833,249.5 242.167,245.5 238.5,241.5C 236.646,238.49 234.313,235.824 231.5,233.5C 230.749,232.427 229.749,232.26 228.5,233C 221.364,239.135 214.531,245.635 208,252.5C 207.308,253.437 207.475,254.103 208.5,254.5C 212.384,258.568 216.05,262.901 219.5,267.5C 218.957,267.56 218.624,267.893 218.5,268.5C 222.071,271.309 223.738,274.975 223.5,279.5C 219.596,275.352 215.929,271.019 212.5,266.5C 210.132,262.472 207.132,259.139 203.5,256.5C 201.486,256.392 199.82,257.058 198.5,258.5C 199.944,255.11 202.61,253.777 206.5,254.5C 206.264,251.774 207.097,249.441 209,247.5C 214,243.167 219,238.833 224,234.5C 224.692,233.563 224.525,232.897 223.5,232.5C 225.248,230.84 225.748,228.84 225,226.5C 221.305,221.638 217.805,216.638 214.5,211.5C 212.422,210.693 210.755,211.359 209.5,213.5C 208.833,213.5 208.167,213.5 207.5,213.5C 206.5,213.167 205.833,212.5 205.5,211.5C 212.497,206.009 220.497,202.675 229.5,201.5 Z"/></g>
<g><path style="opacity:1" fill="#fde625" d="M 173.5,245.5 C 171.871,246.625 170.371,247.959 169,249.5C 168.082,258.419 171.915,261.752 180.5,259.5C 179.708,260.967 179.708,262.3 180.5,263.5C 182.316,260.936 184.149,260.936 186,263.5C 186.49,262.207 186.657,260.873 186.5,259.5C 188.167,259.5 189.833,259.5 191.5,259.5C 191.5,259.833 191.5,260.167 191.5,260.5C 186.167,265.167 181.167,270.167 176.5,275.5C 173.357,275.031 171.023,273.364 169.5,270.5C 164.924,265.013 160.591,259.347 156.5,253.5C 158.898,250.429 160.898,247.095 162.5,243.5C 164.586,241.285 167.253,239.952 170.5,239.5C 171.527,241.553 172.527,243.553 173.5,245.5 Z"/></g>
<g><path style="opacity:1" fill="#bf6c08" d="M 153.5,250.5 C 153.5,249.833 153.833,249.5 154.5,249.5C 155.167,249.5 155.5,249.833 155.5,250.5C 155.557,251.609 155.89,252.609 156.5,253.5C 160.591,259.347 164.924,265.013 169.5,270.5C 168.167,271.167 167.167,272.167 166.5,273.5C 165.206,272.71 164.039,271.71 163,270.5C 160.241,266.593 157.741,262.593 155.5,258.5C 155.706,255.505 155.04,252.838 153.5,250.5 Z"/></g>
<g><path style="opacity:1" fill="#974c05" d="M 288.5,235.5 C 288.833,235.5 289.167,235.5 289.5,235.5C 292.19,238.185 295.19,240.518 298.5,242.5C 298.833,243.5 299.5,244.167 300.5,244.5C 301.091,245.151 301.757,245.818 302.5,246.5C 301.626,248.747 301.292,251.08 301.5,253.5C 299.655,256.333 297.989,259.333 296.5,262.5C 292.315,268.189 288.315,274.022 284.5,280C 284.743,280.902 285.077,281.735 285.5,282.5C 284.957,282.56 284.624,282.893 284.5,283.5C 287.064,287.769 290.064,291.602 293.5,295C 292.587,296.414 292.587,297.914 293.5,299.5C 293.167,299.5 292.833,299.5 292.5,299.5C 289.833,296.5 287.167,293.5 284.5,290.5C 283.781,288.236 283.448,285.903 283.5,283.5C 282.5,283.5 281.5,283.5 280.5,283.5C 280.657,282.127 280.49,280.793 280,279.5C 278.513,278.845 277.347,277.845 276.5,276.5C 276.624,275.893 276.957,275.56 277.5,275.5C 278.791,275.737 279.791,275.404 280.5,274.5C 286.413,267.247 292.746,260.247 299.5,253.5C 297.479,250.812 295.146,248.479 292.5,246.5C 292.5,246.167 292.5,245.833 292.5,245.5C 292.611,244.883 292.944,244.383 293.5,244C 291.402,241.146 289.069,238.479 286.5,236C 287.094,235.536 287.761,235.369 288.5,235.5 Z"/></g>
<g><path style="opacity:1" fill="#feeb24" d="M 203.5,256.5 C 207.132,259.139 210.132,262.472 212.5,266.5C 212.962,268.757 213.962,270.757 215.5,272.5C 213.137,275.489 211.137,278.656 209.5,282C 201.683,281.78 193.85,282.28 186,283.5C 184.954,281.805 183.787,281.472 182.5,282.5C 181.5,282.167 180.833,281.5 180.5,280.5C 188.222,272.447 195.889,264.447 203.5,256.5 Z"/></g>
<g><path style="opacity:1" fill="#fcf097" d="M 203.5,256.5 C 195.889,264.447 188.222,272.447 180.5,280.5C 179.375,279.652 179.375,278.652 180.5,277.5C 186.472,271.193 192.472,264.86 198.5,258.5C 199.82,257.058 201.486,256.392 203.5,256.5 Z"/></g>
<g><path style="opacity:1" fill="#fedf1a" d="M 253.5,262.5 C 255.51,261.651 257.177,262.318 258.5,264.5C 261.06,270.284 262.56,276.284 263,282.5C 261.491,285.006 259.991,287.506 258.5,290C 254.401,292.035 250.734,294.535 247.5,297.5C 243.367,293.879 239.7,289.879 236.5,285.5C 235.859,284.518 235.193,283.518 234.5,282.5C 234.624,281.893 234.957,281.56 235.5,281.5C 236.793,282.645 237.959,282.311 239,280.5C 244.011,274.658 249.177,268.991 254.5,263.5C 254.376,262.893 254.043,262.56 253.5,262.5 Z"/></g>
<g><path style="opacity:1" fill="#e4eedf" d="M 153.5,250.5 C 155.04,252.838 155.706,255.505 155.5,258.5C 154.2,262.096 153.2,265.763 152.5,269.5C 150.734,275.909 150.068,282.576 150.5,289.5C 148.745,276.434 149.745,263.434 153.5,250.5 Z"/></g>
<g><path style="opacity:1" fill="#fcdd25" d="M 155.5,258.5 C 157.741,262.593 160.241,266.593 163,270.5C 164.039,271.71 165.206,272.71 166.5,273.5C 168.016,275.186 169.35,277.019 170.5,279C 169.015,281.652 167.015,283.818 164.5,285.5C 162.227,282.212 160.227,278.712 158.5,275C 156.924,274.56 155.59,273.727 154.5,272.5C 153.818,273.243 153.151,273.909 152.5,274.5C 152.5,272.833 152.5,271.167 152.5,269.5C 153.2,265.763 154.2,262.096 155.5,258.5 Z"/></g>
<g><path style="opacity:1" fill="#fdd312" d="M 258.5,264.5 C 263.167,269.5 267.833,274.5 272.5,279.5C 273.412,280.738 273.579,282.072 273,283.5C 269.596,287.394 266.429,291.394 263.5,295.5C 261.053,297.578 258.72,299.745 256.5,302C 254.402,302.678 252.402,302.511 250.5,301.5C 249.5,300.167 248.5,298.833 247.5,297.5C 250.734,294.535 254.401,292.035 258.5,290C 259.991,287.506 261.491,285.006 263,282.5C 262.56,276.284 261.06,270.284 258.5,264.5 Z"/></g>
<g><path style="opacity:1" fill="#fdf283" d="M 253.5,262.5 C 254.043,262.56 254.376,262.893 254.5,263.5C 249.177,268.991 244.011,274.658 239,280.5C 237.959,282.311 236.793,282.645 235.5,281.5C 240.797,274.536 246.797,268.202 253.5,262.5 Z"/></g>
<g><path style="opacity:1" fill="#a25a09" d="M 169.5,270.5 C 171.023,273.364 173.357,275.031 176.5,275.5C 177.239,275.369 177.906,275.536 178.5,276C 177.956,279.376 175.956,281.21 172.5,281.5C 171.614,282.325 171.281,283.325 171.5,284.5C 170.167,284.5 168.833,284.5 167.5,284.5C 167.5,286.167 167.5,287.833 167.5,289.5C 164.833,292.833 161.833,295.833 158.5,298.5C 158.179,296.952 157.179,296.285 155.5,296.5C 158.122,292.543 161.122,288.876 164.5,285.5C 167.015,283.818 169.015,281.652 170.5,279C 169.35,277.019 168.016,275.186 166.5,273.5C 167.167,272.167 168.167,271.167 169.5,270.5 Z"/></g>
<g><path style="opacity:1" fill="#c2710d" d="M 249.5,257.5 C 250.525,257.897 250.692,258.563 250,259.5C 243.419,266.081 236.919,272.581 230.5,279C 231.167,279.333 231.833,279.667 232.5,280C 229.813,282.293 229.146,284.46 230.5,286.5C 229.833,286.5 229.167,286.5 228.5,286.5C 224.227,289.434 220.227,292.767 216.5,296.5C 215.522,296.189 214.855,295.522 214.5,294.5C 217.355,291.48 220.021,288.313 222.5,285C 222.272,284.601 221.938,284.435 221.5,284.5C 222.942,283.18 223.608,281.514 223.5,279.5C 223.738,274.975 222.071,271.309 218.5,268.5C 218.624,267.893 218.957,267.56 219.5,267.5C 220.5,269.167 221.833,270.5 223.5,271.5C 225.913,275.685 229.246,276.519 233.5,274C 238.365,267.97 243.698,262.47 249.5,257.5 Z"/></g>
<g><path style="opacity:1" fill="#da7e0c" d="M 301.5,253.5 C 301.5,255.167 301.5,256.833 301.5,258.5C 301.368,267.191 301.701,275.858 302.5,284.5C 302.181,290.538 303.847,295.871 307.5,300.5C 308.925,301.922 309.925,303.589 310.5,305.5C 308.092,303.084 305.426,301.084 302.5,299.5C 303.376,299.631 304.043,299.298 304.5,298.5C 299.866,287.667 297.533,276.333 297.5,264.5C 297.672,263.508 297.338,262.842 296.5,262.5C 297.989,259.333 299.655,256.333 301.5,253.5 Z"/></g>
<g><path style="opacity:1" fill="#0b2420" d="M 321.5,239.5 C 307.656,260.396 308.323,280.896 323.5,301C 333.998,310.875 346.331,314.375 360.5,311.5C 362.167,311.833 363.167,312.833 363.5,314.5C 358.058,340.901 346.724,364.234 329.5,384.5C 328.139,380.863 327.139,377.196 326.5,373.5C 326.427,371.973 327.094,370.973 328.5,370.5C 329.738,368.786 330.405,366.786 330.5,364.5C 331.791,364.737 332.791,364.404 333.5,363.5C 339.121,355.591 343.121,346.924 345.5,337.5C 345.5,336.167 345.5,334.833 345.5,333.5C 346.791,333.737 347.791,333.404 348.5,332.5C 348.796,330.597 349.463,328.93 350.5,327.5C 351.451,326.081 351.784,324.415 351.5,322.5C 348.167,322.5 344.833,322.5 341.5,322.5C 334.944,321.391 328.944,318.891 323.5,315C 317.895,309.903 312.895,304.403 308.5,298.5C 306.676,293.675 304.676,289.008 302.5,284.5C 301.701,275.858 301.368,267.191 301.5,258.5C 303.786,249.592 307.452,241.258 312.5,233.5C 313.5,232.833 314.5,232.167 315.5,231.5C 316.583,231.461 317.583,231.127 318.5,230.5C 320.365,233.226 321.365,236.226 321.5,239.5 Z"/></g>
<g><path style="opacity:1" fill="#fcd00e" d="M 164.5,285.5 C 161.122,288.876 158.122,292.543 155.5,296.5C 155.167,297.167 154.833,297.833 154.5,298.5C 153.5,298.5 152.5,298.5 151.5,298.5C 151.5,297.833 151.5,297.167 151.5,296.5C 151.274,289.124 151.608,281.791 152.5,274.5C 153.151,273.909 153.818,273.243 154.5,272.5C 155.59,273.727 156.924,274.56 158.5,275C 160.227,278.712 162.227,282.212 164.5,285.5 Z"/></g>
<g><path style="opacity:1" fill="#f9f283" d="M 152.5,269.5 C 152.5,271.167 152.5,272.833 152.5,274.5C 151.608,281.791 151.274,289.124 151.5,296.5C 150.532,294.393 150.198,292.059 150.5,289.5C 150.068,282.576 150.734,275.909 152.5,269.5 Z"/></g>
<g><path style="opacity:1" fill="#0c3b29" d="M 154.5,246.5 C 154.5,247.5 154.5,248.5 154.5,249.5C 153.833,249.5 153.5,249.833 153.5,250.5C 149.745,263.434 148.745,276.434 150.5,289.5C 150.198,292.059 150.532,294.393 151.5,296.5C 151.5,297.167 151.5,297.833 151.5,298.5C 150.533,301.155 148.867,301.822 146.5,300.5C 145.692,298.577 145.192,296.577 145,294.5C 143.714,300.876 142.714,300.542 142,293.5C 141.503,296.146 141.336,298.813 141.5,301.5C 140.34,289.674 140.174,277.674 141,265.5C 141.806,258.962 143.306,252.629 145.5,246.5C 147.599,244.006 149.932,241.673 152.5,239.5C 153.737,239.556 154.737,240.056 155.5,241C 154.594,242.699 154.261,244.533 154.5,246.5 Z"/></g>
<g><path style="opacity:1" fill="#a65d0b" d="M 272.5,270.5 C 273.167,271.833 274.167,272.833 275.5,273.5C 276.167,274.167 276.833,274.833 277.5,275.5C 276.957,275.56 276.624,275.893 276.5,276.5C 277.347,277.845 278.513,278.845 280,279.5C 280.49,280.793 280.657,282.127 280.5,283.5C 281.5,283.5 282.5,283.5 283.5,283.5C 283.448,285.903 283.781,288.236 284.5,290.5C 283.167,289.5 281.833,288.5 280.5,287.5C 280.158,286.662 279.492,286.328 278.5,286.5C 276.983,286.511 275.816,287.177 275,288.5C 272.92,291.065 271.087,293.732 269.5,296.5C 266.5,299.167 263.5,301.833 260.5,304.5C 260.954,301.501 262.288,298.667 264.5,296C 264.272,295.601 263.938,295.435 263.5,295.5C 266.429,291.394 269.596,287.394 273,283.5C 273.579,282.072 273.412,280.738 272.5,279.5C 272.373,276.437 272.373,273.437 272.5,270.5 Z"/></g>
<g><path style="opacity:1" fill="#fcbd1a" d="M 296.5,262.5 C 297.338,262.842 297.672,263.508 297.5,264.5C 293.781,271.717 292.448,279.384 293.5,287.5C 292.5,287.5 291.5,287.5 290.5,287.5C 288.5,286.167 286.833,284.5 285.5,282.5C 285.077,281.735 284.743,280.902 284.5,280C 288.315,274.022 292.315,268.189 296.5,262.5 Z"/></g>
<g><path style="opacity:1" fill="#fddf19" d="M 212.5,266.5 C 215.929,271.019 219.596,275.352 223.5,279.5C 223.608,281.514 222.942,283.18 221.5,284.5C 216.369,289.13 211.369,293.963 206.5,299C 204.13,301.429 201.463,301.929 198.5,300.5C 192.795,294.797 187.462,288.797 182.5,282.5C 183.787,281.472 184.954,281.805 186,283.5C 193.85,282.28 201.683,281.78 209.5,282C 211.137,278.656 213.137,275.489 215.5,272.5C 213.962,270.757 212.962,268.757 212.5,266.5 Z"/></g>
<g><path style="opacity:1" fill="#f09b0b" d="M 297.5,264.5 C 297.533,276.333 299.866,287.667 304.5,298.5C 304.043,299.298 303.376,299.631 302.5,299.5C 298.194,295.86 294.194,291.86 290.5,287.5C 291.5,287.5 292.5,287.5 293.5,287.5C 292.448,279.384 293.781,271.717 297.5,264.5 Z"/></g>
<g><path style="opacity:1" fill="#fede18" d="M 228.5,286.5 C 229.167,286.5 229.833,286.5 230.5,286.5C 231.167,287.833 232.167,288.833 233.5,289.5C 235.412,291.657 237.079,293.991 238.5,296.5C 238.328,298.492 238.995,300.158 240.5,301.5C 232.763,306.699 224.763,311.366 216.5,315.5C 212.167,312.473 209.667,308.473 209,303.5C 209.816,302.177 210.983,301.511 212.5,301.5C 218.442,297.227 223.776,292.227 228.5,286.5 Z"/></g>
<g><path style="opacity:1" fill="#fcf061" d="M 172.5,285.5 C 168.563,290.776 164.229,295.776 159.5,300.5C 158.833,300.833 158.167,301.167 157.5,301.5C 157.557,300.391 157.89,299.391 158.5,298.5C 161.833,295.833 164.833,292.833 167.5,289.5C 169.167,288.167 170.833,286.833 172.5,285.5 Z"/></g>
<g><path style="opacity:1" fill="#fdda14" d="M 195.5,303.5 C 193.954,308.051 190.954,311.384 186.5,313.5C 184.738,313.643 183.071,313.309 181.5,312.5C 176.491,304.328 169.158,300.328 159.5,300.5C 164.229,295.776 168.563,290.776 172.5,285.5C 173.254,283.554 174.588,282.721 176.5,283C 181.964,290.631 188.298,297.465 195.5,303.5 Z"/></g>
<g><path style="opacity:1" fill="#f7e464" d="M 278.5,286.5 C 276.212,290.456 273.212,293.789 269.5,296.5C 271.087,293.732 272.92,291.065 275,288.5C 275.816,287.177 276.983,286.511 278.5,286.5 Z"/></g>
<g><path style="opacity:1" fill="#ab620d" d="M 191.5,260.5 C 192.239,260.369 192.906,260.536 193.5,261C 190,264.5 186.5,268 183,271.5C 181.441,273.217 180.608,275.217 180.5,277.5C 179.375,278.652 179.375,279.652 180.5,280.5C 180.833,281.5 181.5,282.167 182.5,282.5C 187.462,288.797 192.795,294.797 198.5,300.5C 197.293,301.189 195.959,301.355 194.5,301C 195.252,301.671 195.586,302.504 195.5,303.5C 188.298,297.465 181.964,290.631 176.5,283C 174.588,282.721 173.254,283.554 172.5,285.5C 170.833,286.833 169.167,288.167 167.5,289.5C 167.5,287.833 167.5,286.167 167.5,284.5C 168.833,284.5 170.167,284.5 171.5,284.5C 171.281,283.325 171.614,282.325 172.5,281.5C 175.956,281.21 177.956,279.376 178.5,276C 177.906,275.536 177.239,275.369 176.5,275.5C 181.167,270.167 186.167,265.167 191.5,260.5 Z"/></g>
<g><path style="opacity:1" fill="#f8e881" d="M 228.5,286.5 C 223.776,292.227 218.442,297.227 212.5,301.5C 213.833,299.833 215.167,298.167 216.5,296.5C 220.227,292.767 224.227,289.434 228.5,286.5 Z"/></g>
<g><path style="opacity:1" fill="#fed614" d="M 278.5,286.5 C 279.492,286.328 280.158,286.662 280.5,287.5C 283.962,298.365 280.795,306.698 271,312.5C 269.204,314.402 269.037,316.402 270.5,318.5C 269.167,317.833 268.167,316.833 267.5,315.5C 265.489,313.336 263.822,310.836 262.5,308C 263,306.5 263.5,305 264,303.5C 266.454,301.559 268.287,299.225 269.5,296.5C 273.212,293.789 276.212,290.456 278.5,286.5 Z"/></g>
<g><path style="opacity:1" fill="#ebb520" d="M 302.5,284.5 C 304.676,289.008 306.676,293.675 308.5,298.5C 307.662,298.842 307.328,299.508 307.5,300.5C 303.847,295.871 302.181,290.538 302.5,284.5 Z"/></g>
<g><path style="opacity:1" fill="#b36611" d="M 236.5,285.5 C 239.7,289.879 243.367,293.879 247.5,297.5C 248.5,298.833 249.5,300.167 250.5,301.5C 248.77,302.026 247.436,303.026 246.5,304.5C 243.473,302.14 240.806,299.473 238.5,296.5C 237.079,293.991 235.412,291.657 233.5,289.5C 233.579,288.07 233.246,286.736 232.5,285.5C 233.864,285.622 235.197,285.622 236.5,285.5 Z"/></g>
<g><path style="opacity:1" fill="#fdca0e" d="M 159.5,300.5 C 169.158,300.328 176.491,304.328 181.5,312.5C 183.071,313.309 184.738,313.643 186.5,313.5C 185.833,314.5 185.167,315.5 184.5,316.5C 182.5,317.833 180.833,319.5 179.5,321.5C 177.218,322.39 174.885,322.556 172.5,322C 166.896,315.569 161.896,308.736 157.5,301.5C 158.167,301.167 158.833,300.833 159.5,300.5 Z"/></g>
<g><path style="opacity:1" fill="#fdd312" d="M 238.5,296.5 C 240.806,299.473 243.473,302.14 246.5,304.5C 248.113,305.838 248.613,307.505 248,309.5C 242.237,315.769 236.071,321.436 229.5,326.5C 228.167,326.5 226.833,326.5 225.5,326.5C 222.122,323.124 219.122,319.457 216.5,315.5C 224.763,311.366 232.763,306.699 240.5,301.5C 238.995,300.158 238.328,298.492 238.5,296.5 Z"/></g>
<g><path style="opacity:1" fill="#0f3022" d="M 151.5,298.5 C 152.5,298.5 153.5,298.5 154.5,298.5C 155.586,298.62 156.253,299.287 156.5,300.5C 156.213,302.443 155.213,303.777 153.5,304.5C 152.41,307.681 152.41,311.015 153.5,314.5C 155.169,320.517 156.835,326.517 158.5,332.5C 157.069,332.119 156.236,331.119 156,329.5C 154.665,331.605 152.998,332.271 151,331.5C 149.961,332.244 149.461,333.244 149.5,334.5C 145.13,324.019 142.464,313.019 141.5,301.5C 141.336,298.813 141.503,296.146 142,293.5C 142.714,300.542 143.714,300.876 145,294.5C 145.192,296.577 145.692,298.577 146.5,300.5C 148.867,301.822 150.533,301.155 151.5,298.5 Z"/></g>
<g><path style="opacity:1" fill="#fec70e" d="M 280.5,287.5 C 281.833,288.5 283.167,289.5 284.5,290.5C 287.167,293.5 289.833,296.5 292.5,299.5C 290.897,298.323 289.564,298.489 288.5,300C 288.833,300.333 289.167,300.667 289.5,301C 287.512,303.972 286.012,307.139 285,310.5C 280.558,314.389 277.058,318.389 274.5,322.5C 273.833,322.167 273.167,321.833 272.5,321.5C 271.833,320.5 271.167,319.5 270.5,318.5C 269.037,316.402 269.204,314.402 271,312.5C 280.795,306.698 283.962,298.365 280.5,287.5 Z"/></g>
<g><path style="opacity:1" fill="#fbaf0b" d="M 292.5,299.5 C 292.833,299.5 293.167,299.5 293.5,299.5C 294.945,301.063 296.611,302.396 298.5,303.5C 292.181,311.153 285.514,318.486 278.5,325.5C 276.596,325.262 275.262,324.262 274.5,322.5C 277.058,318.389 280.558,314.389 285,310.5C 286.012,307.139 287.512,303.972 289.5,301C 289.167,300.667 288.833,300.333 288.5,300C 289.564,298.489 290.897,298.323 292.5,299.5 Z"/></g>
<g><path style="opacity:1" fill="#93530c" d="M 221.5,284.5 C 221.938,284.435 222.272,284.601 222.5,285C 220.021,288.313 217.355,291.48 214.5,294.5C 214.855,295.522 215.522,296.189 216.5,296.5C 215.167,298.167 213.833,299.833 212.5,301.5C 210.983,301.511 209.816,302.177 209,303.5C 209.667,308.473 212.167,312.473 216.5,315.5C 219.122,319.457 222.122,323.124 225.5,326.5C 224.061,327.509 222.728,327.176 221.5,325.5C 220.571,326.689 220.238,328.022 220.5,329.5C 218.737,326.98 216.737,324.647 214.5,322.5C 210.961,317.939 207.295,313.439 203.5,309C 202.251,308.26 201.251,308.427 200.5,309.5C 195.533,313.132 190.867,317.132 186.5,321.5C 186.167,321.5 185.833,321.5 185.5,321.5C 185.441,318.951 186.441,316.951 188.5,315.5C 188.333,315.167 188.167,314.833 188,314.5C 187.184,315.823 186.017,316.489 184.5,316.5C 185.167,315.5 185.833,314.5 186.5,313.5C 190.954,311.384 193.954,308.051 195.5,303.5C 195.586,302.504 195.252,301.671 194.5,301C 195.959,301.355 197.293,301.189 198.5,300.5C 201.463,301.929 204.13,301.429 206.5,299C 211.369,293.963 216.369,289.13 221.5,284.5 Z"/></g>
<g><path style="opacity:1" fill="#f6e050" d="M 269.5,296.5 C 268.287,299.225 266.454,301.559 264,303.5C 263.5,305 263,306.5 262.5,308C 263.822,310.836 265.489,313.336 267.5,315.5C 262.396,313.631 260.063,309.964 260.5,304.5C 263.5,301.833 266.5,299.167 269.5,296.5 Z"/></g>
<g><path style="opacity:1" fill="#68400c" d="M 155.5,296.5 C 157.179,296.285 158.179,296.952 158.5,298.5C 157.89,299.391 157.557,300.391 157.5,301.5C 161.896,308.736 166.896,315.569 172.5,322C 174.885,322.556 177.218,322.39 179.5,321.5C 179.389,322.117 179.056,322.617 178.5,323C 175.518,323.498 172.518,323.665 169.5,323.5C 169.843,325.483 169.176,326.817 167.5,327.5C 167.5,327.167 167.5,326.833 167.5,326.5C 168.715,325.221 168.382,324.221 166.5,323.5C 162.51,317.529 158.51,311.529 154.5,305.5C 154.5,304.833 154.167,304.5 153.5,304.5C 155.213,303.777 156.213,302.443 156.5,300.5C 156.253,299.287 155.586,298.62 154.5,298.5C 154.833,297.833 155.167,297.167 155.5,296.5 Z"/></g>
<g><path style="opacity:1" fill="#f3e266" d="M 200.5,309.5 C 196.722,314.617 192.055,318.617 186.5,321.5C 190.867,317.132 195.533,313.132 200.5,309.5 Z"/></g>
<g><path style="opacity:1" fill="#924f0e" d="M 263.5,295.5 C 263.938,295.435 264.272,295.601 264.5,296C 262.288,298.667 260.954,301.501 260.5,304.5C 260.063,309.964 262.396,313.631 267.5,315.5C 268.167,316.833 269.167,317.833 270.5,318.5C 271.167,319.5 271.833,320.5 272.5,321.5C 271.876,321.917 271.543,322.584 271.5,323.5C 272.171,326.185 272.838,328.852 273.5,331.5C 270.833,329.167 268.167,326.833 265.5,324.5C 262.371,320.869 259.037,317.369 255.5,314C 254.002,313.415 253.002,313.915 252.5,315.5C 245.89,320.441 239.89,326.108 234.5,332.5C 233.662,332.842 233.328,333.508 233.5,334.5C 232.527,334.013 231.527,333.513 230.5,333C 232.998,330.552 234.498,327.719 235,324.5C 233.639,327.118 231.806,327.785 229.5,326.5C 236.071,321.436 242.237,315.769 248,309.5C 248.613,307.505 248.113,305.838 246.5,304.5C 247.436,303.026 248.77,302.026 250.5,301.5C 252.402,302.511 254.402,302.678 256.5,302C 258.72,299.745 261.053,297.578 263.5,295.5 Z"/></g>
<g><path style="opacity:1" fill="#f9b916" d="M 153.5,304.5 C 154.167,304.5 154.5,304.833 154.5,305.5C 156.262,313.013 160.095,319.346 166,324.5C 166.399,324.272 166.565,323.938 166.5,323.5C 168.382,324.221 168.715,325.221 167.5,326.5C 163.488,327.113 161.488,325.446 161.5,321.5C 160.127,321.657 158.793,321.49 157.5,321C 156.432,318.562 155.098,316.395 153.5,314.5C 152.41,311.015 152.41,307.681 153.5,304.5 Z"/></g>
<g><path style="opacity:1" fill="#e58a0d" d="M 298.5,303.5 C 299.573,304.251 299.74,305.251 299,306.5C 293.85,313.648 288.017,320.148 281.5,326C 280.251,326.74 279.251,326.573 278.5,325.5C 285.514,318.486 292.181,311.153 298.5,303.5 Z"/></g>
<g><path style="opacity:1" fill="#f1dc6e" d="M 154.5,305.5 C 158.51,311.529 162.51,317.529 166.5,323.5C 166.565,323.938 166.399,324.272 166,324.5C 160.095,319.346 156.262,313.013 154.5,305.5 Z"/></g>
<g><path style="opacity:1" fill="#f5e233" d="M 308.5,298.5 C 312.895,304.403 317.895,309.903 323.5,315C 328.944,318.891 334.944,321.391 341.5,322.5C 344.5,323.167 347.5,323.833 350.5,324.5C 345.819,325.762 341.152,325.762 336.5,324.5C 333.162,323.164 329.829,321.831 326.5,320.5C 325.205,319.512 323.872,318.512 322.5,317.5C 320.858,316.197 319.191,314.864 317.5,313.5C 315.157,310.793 312.823,308.126 310.5,305.5C 309.925,303.589 308.925,301.922 307.5,300.5C 307.328,299.508 307.662,298.842 308.5,298.5 Z"/></g>
<g><path style="opacity:1" fill="#fdd112" d="M 214.5,322.5 C 215.809,325.186 216.809,328.02 217.5,331C 216.584,331.374 215.75,331.874 215,332.5C 212.835,331.417 210.835,330.084 209,328.5C 205.825,329.327 202.992,328.494 200.5,326C 196.243,325.628 192.076,324.795 188,323.5C 186.408,323.605 184.908,323.939 183.5,324.5C 183.427,322.973 184.094,321.973 185.5,321.5C 185.833,321.5 186.167,321.5 186.5,321.5C 192.055,318.617 196.722,314.617 200.5,309.5C 201.251,308.427 202.251,308.26 203.5,309C 207.295,313.439 210.961,317.939 214.5,322.5 Z"/></g>
<g><path style="opacity:1" fill="#fed215" d="M 265.5,324.5 C 265.551,326.57 264.885,328.403 263.5,330C 264.7,331.703 264.367,333.203 262.5,334.5C 255.759,338.045 248.759,340.711 241.5,342.5C 239.194,339.527 236.527,336.86 233.5,334.5C 233.328,333.508 233.662,332.842 234.5,332.5C 241.11,327.559 247.11,321.892 252.5,315.5C 253.002,313.915 254.002,313.415 255.5,314C 259.037,317.369 262.371,320.869 265.5,324.5 Z"/></g>
<g><path style="opacity:1" fill="#eb9a0c" d="M 153.5,314.5 C 155.098,316.395 156.432,318.562 157.5,321C 158.793,321.49 160.127,321.657 161.5,321.5C 161.488,325.446 163.488,327.113 167.5,326.5C 167.5,326.833 167.5,327.167 167.5,327.5C 164.711,329.641 161.711,331.307 158.5,332.5C 156.835,326.517 155.169,320.517 153.5,314.5 Z"/></g>
<g><path style="opacity:1" fill="#484415" d="M 341.5,322.5 C 344.833,322.5 348.167,322.5 351.5,322.5C 351.784,324.415 351.451,326.081 350.5,327.5C 350.5,326.5 350.5,325.5 350.5,324.5C 347.5,323.833 344.5,323.167 341.5,322.5 Z"/></g>
<g><path style="opacity:1" fill="#fdc70c" d="M 214.5,322.5 C 216.737,324.647 218.737,326.98 220.5,329.5C 218.108,334.225 214.441,337.558 209.5,339.5C 205.89,338.396 202.224,337.396 198.5,336.5C 196.893,334.418 195.226,332.918 193.5,332C 191.564,331.187 189.564,330.687 187.5,330.5C 185.774,328.772 184.441,326.772 183.5,324.5C 184.908,323.939 186.408,323.605 188,323.5C 192.076,324.795 196.243,325.628 200.5,326C 202.992,328.494 205.825,329.327 209,328.5C 210.835,330.084 212.835,331.417 215,332.5C 215.75,331.874 216.584,331.374 217.5,331C 216.809,328.02 215.809,325.186 214.5,322.5 Z"/></g>
<g><path style="opacity:1" fill="#fbb610" d="M 314.5,314.5 C 313.122,315.234 311.622,315.901 310,316.5C 309.143,321.795 306.476,325.795 302,328.5C 300.631,332.246 298.131,334.912 294.5,336.5C 293.583,335.873 292.583,335.539 291.5,335.5C 291.167,335.5 290.833,335.5 290.5,335.5C 287.343,334.173 286.176,331.84 287,328.5C 292.875,322.293 298.375,315.793 303.5,309C 304.5,308.333 305.5,308.333 306.5,309C 308.674,311.584 311.341,313.418 314.5,314.5 Z"/></g>
<g><path style="opacity:1" fill="#ce6d09" d="M 324.5,321.5 C 321.25,328.34 317.25,334.673 312.5,340.5C 310.833,341.833 309.167,343.167 307.5,344.5C 305.102,344.741 303.102,344.074 301.5,342.5C 303.722,342.822 305.556,342.155 307,340.5C 307.802,338.488 308.302,336.321 308.5,334C 312.359,330.447 315.359,326.281 317.5,321.5C 319.859,320.286 322.192,320.286 324.5,321.5 Z"/></g>
<g><path style="opacity:1" fill="#342a14" d="M 326.5,320.5 C 329.829,321.831 333.162,323.164 336.5,324.5C 339.665,328.317 343.665,330.984 348.5,332.5C 347.791,333.404 346.791,333.737 345.5,333.5C 345.5,334.833 345.5,336.167 345.5,337.5C 341.5,334.833 337.5,332.167 333.5,329.5C 332.373,328.878 331.373,328.045 330.5,327C 329.5,326.333 328.5,326.333 327.5,327C 324.303,331.683 320.97,336.183 317.5,340.5C 317.53,339.503 317.03,338.836 316,338.5C 314.697,338.978 313.531,339.645 312.5,340.5C 317.25,334.673 321.25,328.34 324.5,321.5C 325.167,321.167 325.833,320.833 326.5,320.5 Z"/></g>
<g><path style="opacity:1" fill="#fae76c" d="M 252.5,315.5 C 247.11,321.892 241.11,327.559 234.5,332.5C 239.89,326.108 245.89,320.441 252.5,315.5 Z"/></g>
<g><path style="opacity:1" fill="#e5840c" d="M 322.5,317.5 C 323.872,318.512 325.205,319.512 326.5,320.5C 325.833,320.833 325.167,321.167 324.5,321.5C 322.192,320.286 319.859,320.286 317.5,321.5C 315.359,326.281 312.359,330.447 308.5,334C 308.302,336.321 307.802,338.488 307,340.5C 305.556,342.155 303.722,342.822 301.5,342.5C 299.596,342.262 298.262,341.262 297.5,339.5C 299.175,337.851 301.175,336.518 303.5,335.5C 308.395,330.057 313.062,324.39 317.5,318.5C 319.071,317.691 320.738,317.357 322.5,317.5 Z"/></g>
<g><path style="opacity:1" fill="#47320f" d="M 179.5,321.5 C 180.496,321.414 181.329,321.748 182,322.5C 182.229,325.458 183.396,327.958 185.5,330C 183.803,330.384 182.137,330.218 180.5,329.5C 179.341,327.623 177.674,327.123 175.5,328C 172.734,329.371 170.401,331.204 168.5,333.5C 166.938,333.733 165.605,334.4 164.5,335.5C 163.5,336.167 162.5,336.833 161.5,337.5C 161.5,336.167 161.5,334.833 161.5,333.5C 160.209,333.737 159.209,333.404 158.5,332.5C 161.711,331.307 164.711,329.641 167.5,327.5C 169.176,326.817 169.843,325.483 169.5,323.5C 172.518,323.665 175.518,323.498 178.5,323C 179.056,322.617 179.389,322.117 179.5,321.5 Z"/></g>
<g><path style="opacity:1" fill="#b05e0b" d="M 336.5,324.5 C 341.152,325.762 345.819,325.762 350.5,324.5C 350.5,325.5 350.5,326.5 350.5,327.5C 349.463,328.93 348.796,330.597 348.5,332.5C 343.665,330.984 339.665,328.317 336.5,324.5 Z"/></g>
<g><path style="opacity:1" fill="#f1970d" d="M 317.5,313.5 C 319.191,314.864 320.858,316.197 322.5,317.5C 320.738,317.357 319.071,317.691 317.5,318.5C 313.062,324.39 308.395,330.057 303.5,335.5C 301.175,336.518 299.175,337.851 297.5,339.5C 295.147,338.66 293.147,337.326 291.5,335.5C 292.583,335.539 293.583,335.873 294.5,336.5C 298.131,334.912 300.631,332.246 302,328.5C 306.476,325.795 309.143,321.795 310,316.5C 311.622,315.901 313.122,315.234 314.5,314.5C 315.791,314.737 316.791,314.404 317.5,313.5 Z"/></g>
<g><path style="opacity:1" fill="#f4b915" d="M 180.5,329.5 C 182.758,332.357 184.758,335.357 186.5,338.5C 186.5,339.167 186.5,339.833 186.5,340.5C 181.977,339.212 177.644,336.712 173.5,333C 171.803,332.616 170.137,332.782 168.5,333.5C 170.401,331.204 172.734,329.371 175.5,328C 177.674,327.123 179.341,327.623 180.5,329.5 Z"/></g>
<g><path style="opacity:1" fill="#71410e" d="M 233.5,334.5 C 236.527,336.86 239.194,339.527 241.5,342.5C 244.473,344.806 247.14,347.473 249.5,350.5C 247.896,351.287 247.229,352.62 247.5,354.5C 243.5,350.833 239.5,347.167 235.5,343.5C 233.246,339.369 229.912,337.203 225.5,337C 219.853,341.823 213.853,346.157 207.5,350C 206.748,350.671 206.414,351.504 206.5,352.5C 205.717,350.657 205.05,348.657 204.5,346.5C 202.369,345.831 200.369,345.165 198.5,344.5C 202.794,344.205 206.461,342.538 209.5,339.5C 214.441,337.558 218.108,334.225 220.5,329.5C 220.238,328.022 220.571,326.689 221.5,325.5C 222.728,327.176 224.061,327.509 225.5,326.5C 226.833,326.5 228.167,326.5 229.5,326.5C 231.806,327.785 233.639,327.118 235,324.5C 234.498,327.719 232.998,330.552 230.5,333C 231.527,333.513 232.527,334.013 233.5,334.5 Z"/></g>
<g><path style="opacity:1" fill="#653a0f" d="M 285.5,282.5 C 286.833,284.5 288.5,286.167 290.5,287.5C 294.194,291.86 298.194,295.86 302.5,299.5C 305.426,301.084 308.092,303.084 310.5,305.5C 312.823,308.126 315.157,310.793 317.5,313.5C 316.791,314.404 315.791,314.737 314.5,314.5C 311.341,313.418 308.674,311.584 306.5,309C 305.5,308.333 304.5,308.333 303.5,309C 298.375,315.793 292.875,322.293 287,328.5C 286.176,331.84 287.343,334.173 290.5,335.5C 289.351,335.791 288.684,336.624 288.5,338C 288.667,338.833 288.833,339.667 289,340.5C 289.893,339.289 290.726,339.289 291.5,340.5C 292.174,342.195 292.841,343.862 293.5,345.5C 290.525,344.345 287.858,342.678 285.5,340.5C 284.167,339.5 282.833,338.5 281.5,337.5C 280.749,336.427 279.749,336.26 278.5,337C 272.997,341.337 267.997,346.17 263.5,351.5C 261.938,351.733 260.605,352.4 259.5,353.5C 259.631,352.624 259.298,351.957 258.5,351.5C 257.583,352.127 256.583,352.461 255.5,352.5C 261.745,346.758 267.911,340.758 274,334.5C 274.74,333.251 274.573,332.251 273.5,331.5C 272.838,328.852 272.171,326.185 271.5,323.5C 271.543,322.584 271.876,321.917 272.5,321.5C 273.167,321.833 273.833,322.167 274.5,322.5C 275.262,324.262 276.596,325.262 278.5,325.5C 279.251,326.573 280.251,326.74 281.5,326C 288.017,320.148 293.85,313.648 299,306.5C 299.74,305.251 299.573,304.251 298.5,303.5C 296.611,302.396 294.945,301.063 293.5,299.5C 292.587,297.914 292.587,296.414 293.5,295C 290.064,291.602 287.064,287.769 284.5,283.5C 284.624,282.893 284.957,282.56 285.5,282.5 Z"/></g>
<g><path style="opacity:1" fill="#fab70c" d="M 187.5,330.5 C 189.564,330.687 191.564,331.187 193.5,332C 195.226,332.918 196.893,334.418 198.5,336.5C 202.224,337.396 205.89,338.396 209.5,339.5C 206.461,342.538 202.794,344.205 198.5,344.5C 194.833,339.833 191.167,335.167 187.5,330.5 Z"/></g>
<g><path style="opacity:1" fill="#fcbd0f" d="M 265.5,324.5 C 268.167,326.833 270.833,329.167 273.5,331.5C 274.573,332.251 274.74,333.251 274,334.5C 267.911,340.758 261.745,346.758 255.5,352.5C 253.297,352.396 251.297,351.73 249.5,350.5C 247.14,347.473 244.473,344.806 241.5,342.5C 248.759,340.711 255.759,338.045 262.5,334.5C 264.367,333.203 264.7,331.703 263.5,330C 264.885,328.403 265.551,326.57 265.5,324.5 Z"/></g>
<g><path style="opacity:1" fill="#b1590a" d="M 333.5,329.5 C 337.5,332.167 341.5,334.833 345.5,337.5C 343.121,346.924 339.121,355.591 333.5,363.5C 332.127,363.657 330.793,363.49 329.5,363C 324.731,359.96 320.397,356.46 316.5,352.5C 318.044,352.703 319.378,353.37 320.5,354.5C 322.734,352.619 324.067,350.285 324.5,347.5C 325.822,347.67 326.989,347.337 328,346.5C 330.022,340.888 331.855,335.221 333.5,329.5 Z"/></g>
<g><path style="opacity:1" fill="#fbb511" d="M 281.5,337.5 C 281.228,339.314 281.061,341.314 281,343.5C 276.307,347.931 270.807,350.931 264.5,352.5C 263.893,352.376 263.56,352.043 263.5,351.5C 267.997,346.17 272.997,341.337 278.5,337C 279.749,336.26 280.749,336.427 281.5,337.5 Z"/></g>
<g><path style="opacity:1" fill="#c67d12" d="M 186.5,338.5 C 189.573,340.569 191.906,343.236 193.5,346.5C 191.211,344.552 188.878,342.552 186.5,340.5C 186.5,339.833 186.5,339.167 186.5,338.5 Z"/></g>
<g><path style="opacity:1" fill="#5a3610" d="M 185.5,321.5 C 184.094,321.973 183.427,322.973 183.5,324.5C 184.441,326.772 185.774,328.772 187.5,330.5C 191.167,335.167 194.833,339.833 198.5,344.5C 196.128,342.852 194.794,343.519 194.5,346.5C 194.167,346.5 193.833,346.5 193.5,346.5C 191.906,343.236 189.573,340.569 186.5,338.5C 184.758,335.357 182.758,332.357 180.5,329.5C 182.137,330.218 183.803,330.384 185.5,330C 183.396,327.958 182.229,325.458 182,322.5C 181.329,321.748 180.496,321.414 179.5,321.5C 180.833,319.5 182.5,317.833 184.5,316.5C 186.017,316.489 187.184,315.823 188,314.5C 188.167,314.833 188.333,315.167 188.5,315.5C 186.441,316.951 185.441,318.951 185.5,321.5 Z"/></g>
<g><path style="opacity:1" fill="#482f13" d="M 290.5,335.5 C 290.833,335.5 291.167,335.5 291.5,335.5C 293.147,337.326 295.147,338.66 297.5,339.5C 298.262,341.262 299.596,342.262 301.5,342.5C 303.102,344.074 305.102,344.741 307.5,344.5C 305.782,345.224 303.948,345.891 302,346.5C 301.814,349.036 301.314,351.369 300.5,353.5C 299.684,350.893 298.017,348.893 295.5,347.5C 294.5,347.167 293.833,346.5 293.5,345.5C 292.841,343.862 292.174,342.195 291.5,340.5C 290.726,339.289 289.893,339.289 289,340.5C 288.833,339.667 288.667,338.833 288.5,338C 288.684,336.624 289.351,335.791 290.5,335.5 Z"/></g>
<g><path style="opacity:1" fill="#fbb009" d="M 186.5,340.5 C 188.878,342.552 191.211,344.552 193.5,346.5C 193.833,346.5 194.167,346.5 194.5,346.5C 194.727,348.933 193.727,350.599 191.5,351.5C 190.448,351.649 189.448,351.483 188.5,351C 183.317,347.24 178.317,343.24 173.5,339C 171.254,337.961 169.087,336.794 167,335.5C 166.617,336.056 166.117,336.389 165.5,336.5C 164.833,336.5 164.5,336.167 164.5,335.5C 165.605,334.4 166.938,333.733 168.5,333.5C 170.137,332.782 171.803,332.616 173.5,333C 177.644,336.712 181.977,339.212 186.5,340.5 Z"/></g>
<g><path style="opacity:1" fill="#fdc715" d="M 235.5,343.5 C 235.84,345.679 236.84,347.512 238.5,349C 237.833,349.667 237.167,350.333 236.5,351C 227.637,352.463 218.97,352.297 210.5,350.5C 209.261,350.942 208.261,351.609 207.5,352.5C 207.167,352.5 206.833,352.5 206.5,352.5C 206.414,351.504 206.748,350.671 207.5,350C 213.853,346.157 219.853,341.823 225.5,337C 229.912,337.203 233.246,339.369 235.5,343.5 Z"/></g>
<g><path style="opacity:1" fill="#cf720e" d="M 333.5,329.5 C 331.855,335.221 330.022,340.888 328,346.5C 326.989,347.337 325.822,347.67 324.5,347.5C 324.067,350.285 322.734,352.619 320.5,354.5C 319.378,353.37 318.044,352.703 316.5,352.5C 314.182,352.182 312.848,350.848 312.5,348.5C 313.366,345.308 315.032,342.641 317.5,340.5C 320.97,336.183 324.303,331.683 327.5,327C 328.5,326.333 329.5,326.333 330.5,327C 331.373,328.045 332.373,328.878 333.5,329.5 Z"/></g>
<g><path style="opacity:1" fill="#f09606" d="M 191.5,351.5 C 189.469,353.522 187.135,355.189 184.5,356.5C 181.976,356.571 179.976,355.571 178.5,353.5C 177.777,350.93 176.61,348.597 175,346.5C 171.657,343.324 168.49,339.991 165.5,336.5C 166.117,336.389 166.617,336.056 167,335.5C 169.087,336.794 171.254,337.961 173.5,339C 178.317,343.24 183.317,347.24 188.5,351C 189.448,351.483 190.448,351.649 191.5,351.5 Z"/></g>
<g><path style="opacity:1" fill="#3c3014" d="M 198.5,344.5 C 200.369,345.165 202.369,345.831 204.5,346.5C 205.05,348.657 205.717,350.657 206.5,352.5C 206.833,352.5 207.167,352.5 207.5,352.5C 208.833,354.167 210.167,355.833 211.5,357.5C 215.86,362.527 220.527,367.194 225.5,371.5C 223.833,371.5 222.167,371.5 220.5,371.5C 220.662,373.527 220.495,375.527 220,377.5C 219.329,378.252 218.496,378.586 217.5,378.5C 217.5,378.167 217.5,377.833 217.5,377.5C 219.942,375.861 220.109,373.861 218,371.5C 213.631,366.963 209.131,362.63 204.5,358.5C 203.294,355.861 201.294,355.028 198.5,356C 195.266,358.748 191.932,361.248 188.5,363.5C 187.167,363.833 185.833,364.167 184.5,364.5C 184.519,362.94 184.852,361.44 185.5,360C 185.167,359.5 184.833,359 184.5,358.5C 183.583,359.127 182.583,359.461 181.5,359.5C 182.306,358.272 183.306,357.272 184.5,356.5C 187.135,355.189 189.469,353.522 191.5,351.5C 193.727,350.599 194.727,348.933 194.5,346.5C 194.794,343.519 196.128,342.852 198.5,344.5 Z"/></g>
<g><path style="opacity:1" fill="#fdb90c" d="M 235.5,343.5 C 239.5,347.167 243.5,350.833 247.5,354.5C 247.378,357.292 246.044,359.292 243.5,360.5C 235.024,361.892 226.69,361.226 218.5,358.5C 217.558,358.608 216.725,358.941 216,359.5C 214.67,358.418 213.17,357.751 211.5,357.5C 210.167,355.833 208.833,354.167 207.5,352.5C 208.261,351.609 209.261,350.942 210.5,350.5C 218.97,352.297 227.637,352.463 236.5,351C 237.167,350.333 237.833,349.667 238.5,349C 236.84,347.512 235.84,345.679 235.5,343.5 Z"/></g>
<g><path style="opacity:1" fill="#f7a60d" d="M 281.5,337.5 C 282.833,338.5 284.167,339.5 285.5,340.5C 286.218,342.137 286.384,343.803 286,345.5C 281.06,351.443 275.226,356.276 268.5,360C 266.455,360.49 264.455,360.323 262.5,359.5C 260.025,358.313 259.025,356.313 259.5,353.5C 260.605,352.4 261.938,351.733 263.5,351.5C 263.56,352.043 263.893,352.376 264.5,352.5C 270.807,350.931 276.307,347.931 281,343.5C 281.061,341.314 281.228,339.314 281.5,337.5 Z"/></g>
<g><path style="opacity:1" fill="#272716" d="M 317.5,340.5 C 315.032,342.641 313.366,345.308 312.5,348.5C 312.848,350.848 314.182,352.182 316.5,352.5C 320.397,356.46 324.731,359.96 329.5,363C 330.793,363.49 332.127,363.657 333.5,363.5C 332.791,364.404 331.791,364.737 330.5,364.5C 330.405,366.786 329.738,368.786 328.5,370.5C 324.507,367.201 320.173,364.201 315.5,361.5C 312.833,359.833 310.167,358.167 307.5,356.5C 306.399,355.402 305.066,355.235 303.5,356C 298.329,362.337 292.663,368.17 286.5,373.5C 285.892,370.366 284.226,369.699 281.5,371.5C 287.566,366.117 293.233,360.284 298.5,354C 299.094,353.536 299.761,353.369 300.5,353.5C 301.314,351.369 301.814,349.036 302,346.5C 303.948,345.891 305.782,345.224 307.5,344.5C 309.167,343.167 310.833,341.833 312.5,340.5C 313.531,339.645 314.697,338.978 316,338.5C 317.03,338.836 317.53,339.503 317.5,340.5 Z"/></g>
<g><path style="opacity:1" fill="#c56707" d="M 164.5,335.5 C 164.5,336.167 164.833,336.5 165.5,336.5C 168.49,339.991 171.657,343.324 175,346.5C 176.61,348.597 177.777,350.93 178.5,353.5C 179.976,355.571 181.976,356.571 184.5,356.5C 183.306,357.272 182.306,358.272 181.5,359.5C 179.456,360.031 177.789,361.198 176.5,363C 175.072,363.579 173.738,363.412 172.5,362.5C 168.499,355.832 164.999,348.832 162,341.5C 161.51,340.207 161.343,338.873 161.5,337.5C 162.5,336.833 163.5,336.167 164.5,335.5 Z"/></g>
<g><path style="opacity:1" fill="#eb900b" d="M 285.5,340.5 C 287.858,342.678 290.525,344.345 293.5,345.5C 293.833,346.5 294.5,347.167 295.5,347.5C 290.955,356.64 283.288,362.973 272.5,366.5C 270.517,365.529 268.517,364.529 266.5,363.5C 265.167,362.167 263.833,360.833 262.5,359.5C 264.455,360.323 266.455,360.49 268.5,360C 275.226,356.276 281.06,351.443 286,345.5C 286.384,343.803 286.218,342.137 285.5,340.5 Z"/></g>
<g><path style="opacity:1" fill="#f19f0b" d="M 211.5,357.5 C 213.17,357.751 214.67,358.418 216,359.5C 216.725,358.941 217.558,358.608 218.5,358.5C 226.69,361.226 235.024,361.892 243.5,360.5C 239.543,363.122 235.876,366.122 232.5,369.5C 230.442,370.933 228.108,371.6 225.5,371.5C 220.527,367.194 215.86,362.527 211.5,357.5 Z"/></g>
<g><path style="opacity:1" fill="#202215" d="M 184.5,364.5 C 184.5,365.167 184.167,365.5 183.5,365.5C 180.811,366.189 179.144,367.856 178.5,370.5C 177.71,369.391 177.21,368.058 177,366.5C 175.141,365.421 173.641,364.088 172.5,362.5C 173.738,363.412 175.072,363.579 176.5,363C 177.789,361.198 179.456,360.031 181.5,359.5C 182.583,359.461 183.583,359.127 184.5,358.5C 184.833,359 185.167,359.5 185.5,360C 184.852,361.44 184.519,362.94 184.5,364.5 Z"/></g>
<g><path style="opacity:1" fill="#d27209" d="M 295.5,347.5 C 298.017,348.893 299.684,350.893 300.5,353.5C 299.761,353.369 299.094,353.536 298.5,354C 293.233,360.284 287.566,366.117 281.5,371.5C 277.778,371.139 274.778,369.472 272.5,366.5C 283.288,362.973 290.955,356.64 295.5,347.5 Z"/></g>
<g><path style="opacity:1" fill="#c7680b" d="M 307.5,356.5 C 310.167,358.167 312.833,359.833 315.5,361.5C 310.988,367.959 305.655,373.793 299.5,379C 297.975,380.009 296.308,380.509 294.5,380.5C 291.802,380.155 289.802,378.822 288.5,376.5C 295.35,371.489 300.517,365.155 304,357.5C 305.011,356.663 306.178,356.33 307.5,356.5 Z"/></g>
<g><path style="opacity:1" fill="#443012" d="M 249.5,350.5 C 251.297,351.73 253.297,352.396 255.5,352.5C 256.583,352.461 257.583,352.127 258.5,351.5C 259.298,351.957 259.631,352.624 259.5,353.5C 259.025,356.313 260.025,358.313 262.5,359.5C 263.833,360.833 265.167,362.167 266.5,363.5C 265.005,363.415 264.005,364.081 263.5,365.5C 264.26,367.36 265.26,369.027 266.5,370.5C 266.167,370.5 265.833,370.5 265.5,370.5C 263.754,368.748 261.754,367.415 259.5,366.5C 257.562,362.831 254.562,361.664 250.5,363C 246.307,366.365 242.307,369.865 238.5,373.5C 238.167,373.5 237.833,373.5 237.5,373.5C 237.799,371.396 237.466,369.396 236.5,367.5C 235.378,368.63 234.044,369.297 232.5,369.5C 235.876,366.122 239.543,363.122 243.5,360.5C 246.044,359.292 247.378,357.292 247.5,354.5C 247.229,352.62 247.896,351.287 249.5,350.5 Z"/></g>
<g><path style="opacity:1" fill="#f29d0e" d="M 259.5,366.5 C 259.586,367.496 259.252,368.329 258.5,369C 252.056,371.456 245.39,372.956 238.5,373.5C 242.307,369.865 246.307,366.365 250.5,363C 254.562,361.664 257.562,362.831 259.5,366.5 Z"/></g>
<g><path style="opacity:1" fill="#f8a30c" d="M 204.5,358.5 C 205.543,361.056 207.21,363.223 209.5,365C 208.692,365.308 208.025,365.808 207.5,366.5C 208.313,367.814 209.313,368.981 210.5,370C 202.867,368.76 195.534,366.593 188.5,363.5C 191.932,361.248 195.266,358.748 198.5,356C 201.294,355.028 203.294,355.861 204.5,358.5 Z"/></g>
<g><path style="opacity:1" fill="#d78415" d="M 307.5,356.5 C 306.178,356.33 305.011,356.663 304,357.5C 300.517,365.155 295.35,371.489 288.5,376.5C 287.094,376.027 286.427,375.027 286.5,373.5C 292.663,368.17 298.329,362.337 303.5,356C 305.066,355.235 306.399,355.402 307.5,356.5 Z"/></g>
<g><path style="opacity:0.987" fill="#081f1d" d="M 158.5,332.5 C 159.209,333.404 160.209,333.737 161.5,333.5C 161.5,334.833 161.5,336.167 161.5,337.5C 161.343,338.873 161.51,340.207 162,341.5C 164.999,348.832 168.499,355.832 172.5,362.5C 173.641,364.088 175.141,365.421 177,366.5C 177.21,368.058 177.71,369.391 178.5,370.5C 183.292,377.126 188.959,382.96 195.5,388C 196.833,388.667 198.167,388.667 199.5,388C 204.08,385.768 208.414,383.268 212.5,380.5C 213.167,380.5 213.833,380.5 214.5,380.5C 215.822,380.33 216.989,380.663 218,381.5C 219.22,379.143 220.053,379.476 220.5,382.5C 220.5,382.833 220.5,383.167 220.5,383.5C 214.522,386.489 208.522,389.489 202.5,392.5C 205.551,395.363 209.217,397.197 213.5,398C 218.833,398.667 224.167,398.667 229.5,398C 231.852,397.76 233.852,396.927 235.5,395.5C 237.806,395.007 240.139,394.674 242.5,394.5C 244.256,393.448 244.923,391.781 244.5,389.5C 245.833,389.5 247.167,389.5 248.5,389.5C 250.033,390.431 251.7,391.098 253.5,391.5C 255.177,390.813 256.844,390.146 258.5,389.5C 260.394,388.952 262.06,387.952 263.5,386.5C 263.92,388.326 263.92,390.326 263.5,392.5C 264.058,393.79 265.058,394.623 266.5,395C 277.035,398.936 287.702,399.436 298.5,396.5C 304.473,396.374 305.806,393.874 302.5,389C 302.836,387.97 303.503,387.47 304.5,387.5C 307.113,388.435 309.779,388.602 312.5,388C 317.397,383.271 322.064,378.438 326.5,373.5C 327.139,377.196 328.139,380.863 329.5,384.5C 321.451,394.045 311.784,401.545 300.5,407C 289.206,408.492 277.872,408.826 266.5,408C 261.595,406.768 257.428,404.268 254,400.5C 251.667,401.413 249.834,402.913 248.5,405C 233.949,409.133 219.282,409.467 204.5,406C 192.197,399.415 181.697,390.581 173,379.5C 162.016,366.2 154.182,351.2 149.5,334.5C 149.461,333.244 149.961,332.244 151,331.5C 152.998,332.271 154.665,331.605 156,329.5C 156.236,331.119 157.069,332.119 158.5,332.5 Z"/></g>
<g><path style="opacity:1" fill="#e6870b" d="M 204.5,358.5 C 209.131,362.63 213.631,366.963 218,371.5C 220.109,373.861 219.942,375.861 217.5,377.5C 216.417,377.461 215.417,377.127 214.5,376.5C 214.167,377.167 213.833,377.833 213.5,378.5C 206.123,376.416 199.123,373.582 192.5,370C 191.257,368.846 190.257,367.512 189.5,366C 187.934,365.235 186.601,365.402 185.5,366.5C 184.508,366.672 183.842,366.338 183.5,365.5C 184.167,365.5 184.5,365.167 184.5,364.5C 185.833,364.167 187.167,363.833 188.5,363.5C 195.534,366.593 202.867,368.76 210.5,370C 209.313,368.981 208.313,367.814 207.5,366.5C 208.025,365.808 208.692,365.308 209.5,365C 207.21,363.223 205.543,361.056 204.5,358.5 Z"/></g>
<g><path style="opacity:1" fill="#1e2616" d="M 237.5,373.5 C 235.738,374.262 234.738,375.596 234.5,377.5C 236.607,379.727 238.94,381.727 241.5,383.5C 243.833,385.5 246.167,387.5 248.5,389.5C 247.167,389.5 245.833,389.5 244.5,389.5C 244.923,391.781 244.256,393.448 242.5,394.5C 243.598,393.603 243.598,392.77 242.5,392C 238.12,387.952 233.454,384.285 228.5,381C 225.593,380.282 222.926,380.782 220.5,382.5C 220.053,379.476 219.22,379.143 218,381.5C 216.989,380.663 215.822,380.33 214.5,380.5C 214.973,379.094 215.973,378.427 217.5,378.5C 218.496,378.586 219.329,378.252 220,377.5C 220.495,375.527 220.662,373.527 220.5,371.5C 222.167,371.5 223.833,371.5 225.5,371.5C 228.108,371.6 230.442,370.933 232.5,369.5C 234.044,369.297 235.378,368.63 236.5,367.5C 237.466,369.396 237.799,371.396 237.5,373.5 Z"/></g>
<g><path style="opacity:1" fill="#152216" d="M 266.5,363.5 C 268.517,364.529 270.517,365.529 272.5,366.5C 274.778,369.472 277.778,371.139 281.5,371.5C 284.226,369.699 285.892,370.366 286.5,373.5C 286.427,375.027 287.094,376.027 288.5,376.5C 289.802,378.822 291.802,380.155 294.5,380.5C 297.833,382.833 301.167,385.167 304.5,387.5C 303.503,387.47 302.836,387.97 302.5,389C 305.806,393.874 304.473,396.374 298.5,396.5C 300.378,395.792 302.045,394.626 303.5,393C 295.748,388.914 288.248,384.414 281,379.5C 274.736,383.265 268.903,387.599 263.5,392.5C 263.92,390.326 263.92,388.326 263.5,386.5C 262.06,387.952 260.394,388.952 258.5,389.5C 263.171,385.399 268.004,381.399 273,377.5C 273.528,376.184 273.028,375.517 271.5,375.5C 269.64,374.061 267.973,372.395 266.5,370.5C 265.26,369.027 264.26,367.36 263.5,365.5C 264.005,364.081 265.005,363.415 266.5,363.5 Z"/></g>
<g><path style="opacity:1" fill="#a1530a" d="M 315.5,361.5 C 320.173,364.201 324.507,367.201 328.5,370.5C 327.094,370.973 326.427,371.973 326.5,373.5C 322.064,378.438 317.397,383.271 312.5,388C 309.779,388.602 307.113,388.435 304.5,387.5C 301.167,385.167 297.833,382.833 294.5,380.5C 296.308,380.509 297.975,380.009 299.5,379C 305.655,373.793 310.988,367.959 315.5,361.5 Z"/></g>
<g><path style="opacity:1" fill="#e5830b" d="M 259.5,366.5 C 261.754,367.415 263.754,368.748 265.5,370.5C 266.038,372.117 266.371,373.784 266.5,375.5C 260.065,377.775 253.399,379.442 246.5,380.5C 242.359,379.924 238.359,378.924 234.5,377.5C 234.738,375.596 235.738,374.262 237.5,373.5C 237.833,373.5 238.167,373.5 238.5,373.5C 245.39,372.956 252.056,371.456 258.5,369C 259.252,368.329 259.586,367.496 259.5,366.5 Z"/></g>
<g><path style="opacity:1" fill="#d67409" d="M 217.5,377.5 C 217.5,377.833 217.5,378.167 217.5,378.5C 215.973,378.427 214.973,379.094 214.5,380.5C 213.833,380.5 213.167,380.5 212.5,380.5C 201.169,380.335 192.169,375.668 185.5,366.5C 186.601,365.402 187.934,365.235 189.5,366C 190.257,367.512 191.257,368.846 192.5,370C 199.123,373.582 206.123,376.416 213.5,378.5C 213.833,377.833 214.167,377.167 214.5,376.5C 215.417,377.127 216.417,377.461 217.5,377.5 Z"/></g>
<g><path style="opacity:1" fill="#a85409" d="M 183.5,365.5 C 183.842,366.338 184.508,366.672 185.5,366.5C 192.169,375.668 201.169,380.335 212.5,380.5C 208.414,383.268 204.08,385.768 199.5,388C 198.167,388.667 196.833,388.667 195.5,388C 188.959,382.96 183.292,377.126 178.5,370.5C 179.144,367.856 180.811,366.189 183.5,365.5 Z"/></g>
<g><path style="opacity:1" fill="#d26c0a" d="M 265.5,370.5 C 265.833,370.5 266.167,370.5 266.5,370.5C 267.973,372.395 269.64,374.061 271.5,375.5C 270.322,376.999 268.655,377.999 266.5,378.5C 265.359,379.425 265.359,380.259 266.5,381C 258.334,383.965 250.001,384.798 241.5,383.5C 238.94,381.727 236.607,379.727 234.5,377.5C 238.359,378.924 242.359,379.924 246.5,380.5C 253.399,379.442 260.065,377.775 266.5,375.5C 266.371,373.784 266.038,372.117 265.5,370.5 Z"/></g>
<g><path style="opacity:1" fill="#b75c0b" d="M 271.5,375.5 C 273.028,375.517 273.528,376.184 273,377.5C 268.004,381.399 263.171,385.399 258.5,389.5C 256.844,390.146 255.177,390.813 253.5,391.5C 251.7,391.098 250.033,390.431 248.5,389.5C 246.167,387.5 243.833,385.5 241.5,383.5C 250.001,384.798 258.334,383.965 266.5,381C 265.359,380.259 265.359,379.425 266.5,378.5C 268.655,377.999 270.322,376.999 271.5,375.5 Z"/></g>
<g><path style="opacity:1" fill="#a4510b" d="M 298.5,396.5 C 287.702,399.436 277.035,398.936 266.5,395C 265.058,394.623 264.058,393.79 263.5,392.5C 268.903,387.599 274.736,383.265 281,379.5C 288.248,384.414 295.748,388.914 303.5,393C 302.045,394.626 300.378,395.792 298.5,396.5 Z"/></g>
<g><path style="opacity:1" fill="#b65908" d="M 242.5,394.5 C 240.139,394.674 237.806,395.007 235.5,395.5C 234.305,395.322 233.138,394.989 232,394.5C 230.699,395.893 229.199,396.393 227.5,396C 228.167,395.333 228.833,394.667 229.5,394C 227.069,393.705 225.236,392.538 224,390.5C 221.022,391.569 219.189,390.402 218.5,387C 218.978,385.697 219.645,384.531 220.5,383.5C 220.5,383.167 220.5,382.833 220.5,382.5C 222.926,380.782 225.593,380.282 228.5,381C 233.454,384.285 238.12,387.952 242.5,392C 243.598,392.77 243.598,393.603 242.5,394.5 Z"/></g>
<g><path style="opacity:1" fill="#9a4d0a" d="M 220.5,383.5 C 219.645,384.531 218.978,385.697 218.5,387C 219.189,390.402 221.022,391.569 224,390.5C 225.236,392.538 227.069,393.705 229.5,394C 228.833,394.667 228.167,395.333 227.5,396C 229.199,396.393 230.699,395.893 232,394.5C 233.138,394.989 234.305,395.322 235.5,395.5C 233.852,396.927 231.852,397.76 229.5,398C 224.167,398.667 218.833,398.667 213.5,398C 209.217,397.197 205.551,395.363 202.5,392.5C 208.522,389.489 214.522,386.489 220.5,383.5 Z"/></g>
</svg>
